<svg xmlns="http://www.w3.org/2000/svg" width="408" height="612" viewBox="0 0 408 612">
<g>
<path d="M 241.08 302.75 C240.98,304.28 240.43,304.27 236.00,302.59 C224.35,298.17 220.80,294.97 216.62,285.09 C213.06,276.64 212.25,270.86 214.39,269.09 C215.74,267.97 216.02,267.98 216.13,269.13 C216.20,269.88 216.60,268.92 217.01,267.00 C217.50,264.74 217.66,266.60 217.47,272.26 C217.28,277.80 217.53,280.79 218.16,280.40 C218.69,280.07 218.89,279.17 218.60,278.40 C218.30,277.63 218.50,277.00 219.03,277.00 C219.56,277.00 220.00,276.08 220.00,274.95 C220.00,273.55 221.18,272.37 223.75,271.21 C226.89,269.80 231.21,269.51 250.50,269.43 L 273.50 269.34 L 274.00 273.41 C274.35,276.24 275.03,277.58 276.25,277.81 C277.21,278.00 278.00,277.62 278.00,276.97 C278.00,276.32 277.33,276.05 276.50,276.36 C275.39,276.79 275.00,276.23 275.02,274.22 C275.03,272.43 275.31,271.94 275.85,272.79 C276.39,273.65 277.08,272.67 277.93,269.79 C278.63,267.43 279.83,264.79 280.60,263.92 C281.37,263.06 282.16,260.23 282.36,257.65 L 282.72 252.96 L 278.42 251.88 C274.74,250.95 274.01,250.33 273.44,247.65 C272.75,244.45 268.40,232.18 262.68,217.32 C259.58,209.26 259.46,209.11 254.02,206.62 C250.98,205.23 247.38,203.79 246.00,203.41 C244.62,203.04 243.25,202.34 242.94,201.87 C242.64,201.40 238.59,199.80 233.94,198.33 C226.06,195.83 224.24,195.64 206.50,195.58 L 206.45 195.58 C195.99,195.54 191.04,195.52 186.22,196.33 C181.90,197.06 177.68,198.46 169.67,201.12 C161.20,203.93 152.24,208.68 150.99,211.02 C149.76,213.32 140.09,239.43 139.33,242.50 C139.06,243.60 138.46,245.40 138.01,246.50 C137.55,247.60 136.92,249.32 136.60,250.32 C136.18,251.61 135.42,251.95 134.00,251.50 C132.81,251.12 132.00,251.32 132.00,251.99 C132.00,252.61 131.59,252.87 131.09,252.56 C130.59,252.25 129.46,252.27 128.59,252.60 C125.92,253.63 126.63,258.79 129.89,262.05 C132.55,264.71 133.83,268.75 134.06,275.27 C134.09,276.25 134.58,276.76 135.14,276.41 C135.71,276.06 135.45,277.16 134.58,278.84 C133.71,280.52 133.00,283.72 133.00,285.95 C133.00,292.55 131.48,290.58 130.15,282.25 C129.47,277.99 128.06,271.80 127.02,268.50 C123.34,256.85 119.04,229.65 119.04,218.00 C119.03,205.64 125.06,189.68 132.50,182.34 C134.97,179.90 137.00,177.14 137.01,176.20 C137.05,169.92 161.14,151.06 169.18,151.01 C170.11,151.00 173.03,149.69 175.68,148.09 C192.05,138.18 223.87,139.57 246.22,151.16 C255.48,155.96 269.17,168.48 272.83,175.50 C273.98,177.70 277.41,182.12 280.45,185.33 C292.49,198.03 296.04,212.61 292.53,235.09 C289.90,251.95 289.40,254.34 285.72,267.00 C283.73,273.88 281.54,281.72 280.87,284.43 L 279.64 289.36 L 278.50 285.43 C277.42,281.69 277.33,281.62 276.62,284.00 C273.73,293.65 267.83,300.06 259.57,302.53 C253.42,304.36 242.37,304.50 241.66,302.75 C241.26,301.75 241.14,301.75 241.08,302.75 ZM 317.48 612.00 L 250.40 612.00 C285.91,612.00 286.96,611.94 288.00,610.00 C288.59,608.90 289.95,608.00 291.02,608.00 C293.40,608.00 294.48,604.40 293.65,599.20 C293.30,597.00 293.66,593.76 294.54,591.21 C295.38,588.78 296.07,582.91 296.14,577.71 C296.21,572.64 296.63,568.04 297.07,567.47 C297.52,566.90 298.15,559.78 298.48,551.65 C299.10,536.28 300.16,528.44 302.10,524.82 C302.80,523.51 303.00,520.64 302.62,517.40 C302.22,514.03 302.39,511.88 303.09,511.45 C303.68,511.08 303.95,509.93 303.68,508.89 C303.41,507.85 303.60,507.00 304.09,507.00 C304.59,507.00 305.00,505.89 305.00,504.54 C305.00,500.30 308.95,484.90 310.62,482.65 C312.08,480.67 312.17,482.49 311.64,505.50 C311.33,519.25 311.52,537.47 312.08,546.00 C313.48,567.63 313.89,576.33 314.29,593.00 C314.54,603.30 315.05,608.15 316.06,609.75 L 317.48 612.00 ZM 156.00 302.62 C156.00,303.38 155.89,303.98 155.75,303.95 C155.61,303.93 153.29,303.04 150.59,301.99 C144.19,299.49 140.29,295.72 137.37,289.22 C134.60,283.06 134.47,282.00 136.49,282.00 C137.72,282.00 137.92,280.49 137.62,273.25 C137.42,268.44 137.45,266.64 137.68,269.26 C138.10,273.98 138.12,274.01 141.30,273.47 C143.06,273.18 146.07,272.39 148.00,271.72 C150.31,270.91 158.48,270.50 172.00,270.50 C189.25,270.50 192.61,270.26 193.18,269.00 C193.60,268.08 193.93,268.86 194.03,271.00 L 194.20 274.50 L 195.06 270.85 C195.54,268.84 196.96,265.69 198.21,263.85 C200.37,260.69 200.79,260.52 205.64,260.80 C209.19,261.00 211.32,261.70 212.54,263.05 C213.75,264.38 213.90,265.00 213.03,265.00 C212.03,265.00 212.05,265.38 213.13,266.75 C214.37,268.33 214.33,268.37 212.76,267.14 C211.80,266.39 211.20,265.49 211.41,265.14 C212.12,263.99 205.56,263.98 202.74,265.13 C199.92,266.27 199.47,267.33 198.67,274.66 C198.42,276.95 196.79,281.72 195.04,285.27 C188.76,298.03 178.95,304.00 164.26,304.00 C156.07,304.00 155.60,302.98 162.96,301.19 C165.93,300.47 167.82,300.44 168.62,301.10 C169.44,301.78 171.29,301.41 174.48,299.90 C177.68,298.40 178.74,297.46 177.86,296.91 C177.15,296.47 176.10,296.48 175.53,296.93 C174.97,297.38 173.06,297.66 171.29,297.54 C169.53,297.42 168.32,297.70 168.60,298.16 C168.89,298.62 168.67,299.00 168.12,299.00 C167.57,299.00 166.87,298.60 166.56,298.10 C166.00,297.18 161.35,297.30 157.16,298.34 C155.80,298.68 153.81,298.27 152.45,297.37 C151.15,296.52 149.51,296.16 148.79,296.57 C148.08,296.98 147.84,296.94 148.27,296.48 C148.69,296.01 147.68,295.06 146.02,294.36 C144.36,293.67 143.00,292.40 143.00,291.55 C143.00,289.81 141.45,289.47 140.50,291.00 C140.16,291.55 140.36,292.00 140.94,292.00 C141.52,292.00 141.89,292.56 141.75,293.25 C141.61,293.94 142.10,294.38 142.82,294.23 C143.55,294.07 143.92,294.32 143.64,294.77 C142.71,296.28 144.71,298.19 147.37,298.35 C148.82,298.43 150.00,298.84 150.00,299.25 C150.00,299.66 150.34,299.95 150.75,299.89 C152.63,299.62 156.00,301.37 156.00,302.62 ZM 118.29 612.00 L 95.68 612.00 L 96.97 607.75 C97.74,605.24 98.42,596.34 98.64,586.00 C98.84,576.38 99.40,563.55 99.87,557.50 C100.98,543.33 100.41,491.31 99.05,483.50 C97.79,476.22 97.69,471.25 98.84,472.55 C100.13,474.02 103.74,484.87 104.98,491.00 C105.58,494.02 106.74,502.80 107.54,510.50 C108.35,518.20 109.71,526.30 110.58,528.50 C111.65,531.21 112.47,538.61 113.14,551.50 C113.67,561.95 114.76,573.78 115.56,577.78 C116.35,581.78 117.00,587.68 117.00,590.88 C117.00,594.08 117.29,600.14 117.65,604.35 L 118.29 612.00 ZM 177.00 173.71 C180.04,175.24 187.71,175.35 195.19,173.97 C200.81,172.93 210.98,172.25 223.21,172.09 C229.69,172.00 230.07,171.86 233.95,167.94 L 237.97 163.87 L 235.34 161.44 C233.89,160.10 232.25,159.00 231.70,159.00 C231.15,159.00 228.32,157.88 225.42,156.51 C220.74,154.29 218.71,153.99 207.33,153.84 C190.23,153.61 181.12,156.33 176.47,163.04 C173.22,167.74 173.43,171.91 177.00,173.71 ZM 204.96 584.99 C203.36,588.56 201.65,591.62 201.17,591.78 C199.59,592.30 196.84,583.35 197.50,579.82 C198.36,575.18 195.45,559.21 192.51,552.50 C190.81,548.62 189.61,542.83 188.35,532.50 C187.39,524.60 188.85,527.76 191.94,540.27 C194.99,552.60 199.10,562.87 202.04,565.54 C205.24,568.43 208.19,566.36 212.74,558.00 C213.99,555.70 214.04,555.90 213.44,560.50 C212.75,565.73 209.88,574.02 204.96,584.99 ZM 213.87 612.00 L 199.16 612.00 L 198.55 609.22 C197.88,606.20 199.69,601.66 203.69,596.25 C206.15,592.93 208.67,591.81 207.64,594.49 C207.33,595.32 208.17,597.15 209.54,598.63 C210.89,600.10 212.00,600.98 212.00,600.61 C212.00,600.23 212.94,600.80 214.10,601.87 C215.34,603.04 215.98,604.57 215.67,605.66 C215.39,606.67 214.87,608.51 214.51,609.75 L 213.87 612.00 ZM 301.00 603.66 C301.00,611.89 301.03,612.00 303.50,612.00 C305.88,612.00 306.00,611.71 306.01,606.25 C306.03,597.51 303.75,571.00 302.98,571.00 C302.22,571.00 301.00,591.06 301.00,603.66 ZM 106.00 608.36 C106.00,611.33 106.37,612.00 108.00,612.00 C109.91,612.00 110.00,611.33 110.00,597.56 C110.00,589.62 109.63,582.89 109.18,582.61 C108.37,582.11 106.00,601.30 106.00,608.36 ZM 181.00 248.70 C181.00,249.57 179.75,249.94 177.25,249.83 C168.90,249.44 165.00,248.84 165.00,247.94 C165.00,247.42 165.56,246.97 166.25,246.93 C166.94,246.89 166.60,246.47 165.50,246.00 C164.14,245.41 165.90,245.12 171.05,245.07 C178.52,245.00 181.00,245.91 181.00,248.70 ZM 241.25 301.34 C241.94,301.62 242.50,301.88 242.51,301.92 C242.51,301.96 244.01,301.57 245.84,301.05 C248.13,300.39 249.74,300.44 250.98,301.22 C252.41,302.11 253.15,302.00 254.47,300.68 C255.95,299.20 255.96,299.00 254.57,299.00 C253.71,299.00 253.00,298.55 253.00,298.00 C253.00,296.91 245.86,296.66 242.25,297.63 C239.82,298.28 239.22,300.52 241.25,301.34 ZM 260.28 298.28 C260.95,298.51 261.73,298.43 262.00,298.10 C262.27,297.77 263.17,297.50 264.00,297.50 C264.83,297.50 265.44,296.70 265.36,295.71 C265.23,294.21 265.47,294.13 266.86,295.18 C267.76,295.87 268.16,296.04 267.75,295.55 C267.33,295.06 267.78,293.73 268.75,292.58 C270.50,290.50 270.50,290.50 268.25,292.40 C266.55,293.84 266.00,293.97 265.98,292.90 C265.97,291.72 265.83,291.71 265.10,292.88 C264.62,293.64 263.77,293.98 263.22,293.64 C262.67,293.30 261.51,294.10 260.64,295.43 C259.45,297.24 259.36,297.96 260.28,298.28 ZM 162.20 243.00 C160.11,243.00 157.76,243.56 156.98,244.25 C156.19,244.94 156.38,244.51 157.39,243.30 C158.81,241.60 159.94,241.22 162.36,241.63 C164.90,242.07 165.21,241.94 164.00,240.99 C162.71,239.98 162.75,239.89 164.25,240.37 C165.21,240.68 166.00,240.50 166.00,239.97 C166.00,239.44 167.69,239.02 169.75,239.04 C173.45,239.07 173.47,239.09 171.05,240.43 C169.70,241.17 168.02,241.56 167.30,241.29 C166.59,241.01 166.00,241.28 166.00,241.89 C166.00,242.51 164.31,243.00 162.20,243.00 ZM 223.51 527.38 C223.70,528.42 223.02,531.34 221.98,533.88 L 220.10 538.50 L 220.70 532.00 C221.03,528.42 221.65,524.60 222.08,523.50 L 222.87 521.50 L 223.01 523.50 C223.09,524.60 223.31,526.35 223.51,527.38 ZM 226.79 247.21 C225.81,248.19 224.85,249.00 224.67,249.00 C222.86,249.00 222.36,243.51 224.07,242.46 C224.66,242.09 225.91,242.61 226.86,243.61 C228.49,245.32 228.48,245.52 226.79,247.21 ZM 169.67 380.99 C167.26,385.42 166.53,385.82 165.54,383.25 C165.09,382.06 165.71,380.79 167.49,379.25 C171.37,375.92 172.10,376.50 169.67,380.99 ZM 245.00 239.94 C245.00,241.24 243.82,241.72 241.75,241.25 C239.10,240.65 239.65,239.00 242.50,239.00 C243.88,239.00 245.00,239.42 245.00,239.94 ZM 220.22 422.82 C221.12,423.72 221.12,424.28 220.23,425.17 C219.34,426.06 218.91,425.93 218.41,424.62 C217.56,422.42 218.69,421.29 220.22,422.82 ZM 57.17 604.77 C58.03,605.63 58.05,606.53 57.24,608.22 C56.20,610.36 56.13,610.29 56.07,607.05 C56.02,604.42 56.28,603.88 57.17,604.77 ZM 211.39 589.42 C211.06,590.29 210.35,591.00 209.81,591.00 C208.50,591.00 209.32,588.73 210.81,588.23 C211.54,587.99 211.77,588.44 211.39,589.42 ZM 227.68 247.81 C227.97,248.53 227.94,249.40 227.60,249.73 C227.27,250.06 227.04,249.47 227.08,248.42 C227.13,247.25 227.36,247.01 227.68,247.81 Z" fill="rgb(35,30,30)"/>
<path d="M 204.96 584.99 C209.88,574.02 212.75,565.73 213.44,560.50 C214.04,555.90 213.99,555.70 212.74,558.00 C208.19,566.36 205.24,568.43 202.04,565.54 C205.59,568.75 209.86,564.80 214.51,554.00 C215.57,551.53 216.73,549.28 217.07,549.00 C218.02,548.25 219.00,543.55 220.47,532.68 C220.70,531.02 220.92,529.52 221.14,528.19 C220.97,529.40 220.82,530.72 220.70,532.00 L 220.10 538.50 L 221.98 533.88 C223.02,531.34 223.70,528.42 223.51,527.38 C223.44,527.01 223.36,526.54 223.29,526.04 C223.97,526.76 225.82,521.12 228.77,509.25 C234.98,484.36 242.22,446.83 243.58,432.50 C243.84,429.75 244.57,424.35 245.20,420.50 C247.48,406.58 245.80,388.32 241.48,379.96 C238.05,373.33 245.12,378.46 259.07,392.73 C269.64,403.56 271.46,404.97 280.32,409.29 C285.65,411.88 290.22,414.00 290.48,414.00 C290.73,414.00 293.32,415.07 296.22,416.37 C299.12,417.68 304.42,420.02 308.00,421.59 C316.90,425.48 327.12,430.87 329.35,432.85 C331.95,435.15 333.46,438.48 335.33,446.00 C338.75,459.74 341.41,474.08 346.44,506.00 C348.95,521.96 355.26,581.45 356.59,601.75 L 357.26 612.00 L 317.48 612.00 L 316.06 609.75 C315.05,608.15 314.54,603.30 314.29,593.00 C313.89,576.33 313.48,567.63 312.08,546.00 C311.52,537.47 311.33,519.25 311.64,505.50 C312.17,482.49 312.08,480.67 310.62,482.65 C308.95,484.90 305.00,500.30 305.00,504.54 C305.00,505.89 304.59,507.00 304.09,507.00 C303.60,507.00 303.41,507.85 303.68,508.89 C303.95,509.93 303.68,511.08 303.09,511.45 C302.39,511.88 302.22,514.03 302.62,517.40 C303.00,520.64 302.80,523.51 302.10,524.82 C300.16,528.44 299.10,536.28 298.48,551.65 C298.15,559.78 297.52,566.90 297.07,567.47 C296.63,568.04 296.21,572.64 296.14,577.71 C296.07,582.91 295.38,588.78 294.54,591.21 C293.66,593.76 293.30,597.00 293.65,599.20 C294.48,604.40 293.40,608.00 291.02,608.00 C289.95,608.00 288.59,608.90 288.00,610.00 C286.96,611.94 285.91,612.00 250.40,612.00 L 213.87 612.00 L 214.51 609.75 C214.87,608.51 215.39,606.67 215.67,605.66 C215.98,604.57 215.34,603.04 214.10,601.87 C212.94,600.80 212.00,600.23 212.00,600.61 C212.00,600.98 210.89,600.10 209.54,598.63 C208.17,597.15 207.33,595.32 207.64,594.49 C208.67,591.81 206.15,592.93 203.69,596.25 C199.69,601.66 197.88,606.20 198.55,609.22 L 199.16 612.00 L 118.29 612.00 L 117.65 604.35 C117.29,600.14 117.00,594.08 117.00,590.88 C117.00,587.68 116.35,581.78 115.56,577.78 C114.76,573.78 113.67,561.95 113.14,551.50 C112.47,538.61 111.65,531.21 110.58,528.50 C109.71,526.30 108.35,518.20 107.54,510.50 C106.74,502.80 105.58,494.02 104.98,491.00 C103.74,484.87 100.13,474.02 98.84,472.55 C97.69,471.25 97.79,476.22 99.05,483.50 C100.41,491.31 100.98,543.33 99.87,557.50 C99.40,563.55 98.84,576.38 98.64,586.00 C98.42,596.34 97.74,605.24 96.97,607.75 L 95.68 612.00 L 54.88 612.00 L 55.43 607.75 C56.14,602.28 57.81,583.77 58.53,573.50 C58.84,569.10 59.76,560.47 60.57,554.33 C61.38,548.18 62.25,540.98 62.50,538.33 C64.98,511.46 76.67,448.51 80.98,438.77 C83.90,432.19 88.93,429.17 121.37,414.59 C131.75,409.92 140.81,405.29 141.51,404.30 C143.62,401.31 164.68,380.85 167.69,378.86 C168.22,378.52 168.68,378.22 169.08,377.98 C168.63,378.31 168.10,378.73 167.49,379.25 C165.71,380.79 165.09,382.06 165.54,383.25 C166.53,385.82 167.26,385.42 169.67,380.99 C170.09,380.21 170.42,379.55 170.65,379.01 C170.36,379.70 169.94,380.61 169.38,381.75 C166.98,386.68 166.64,387.98 164.76,399.30 C163.90,404.47 163.92,408.17 164.86,414.80 C165.54,419.58 166.28,425.08 166.51,427.00 C167.81,437.87 168.39,441.81 170.64,455.00 C174.62,478.27 187.62,534.45 187.89,529.58 C188.09,526.07 189.07,528.66 191.94,540.27 C188.85,527.76 187.39,524.60 188.35,532.50 C189.61,542.83 190.81,548.62 192.51,552.50 C195.45,559.21 198.36,575.18 197.50,579.82 C196.84,583.35 199.59,592.30 201.17,591.78 C201.65,591.62 203.36,588.56 204.96,584.99 ZM 162.20 243.00 C164.31,243.00 166.00,242.51 166.00,241.89 C166.00,241.28 166.59,241.01 167.30,241.29 C168.02,241.56 169.70,241.17 171.05,240.43 C172.37,239.70 172.96,239.36 172.63,239.20 C172.67,239.20 172.71,239.19 172.74,239.19 C180.14,238.85 182.49,239.09 184.48,240.40 C187.73,242.52 187.56,246.83 184.19,248.12 C180.87,249.38 181.93,251.22 187.08,253.14 C191.99,254.98 216.62,255.71 219.76,254.12 C220.72,253.64 223.07,252.56 225.00,251.72 L 228.50 250.21 L 227.48 249.81 C227.52,249.80 227.56,249.77 227.60,249.73 C227.94,249.40 227.97,248.53 227.68,247.81 C227.36,247.01 227.13,247.25 227.08,248.42 C227.05,249.06 227.13,249.54 227.27,249.73 L 225.75 249.13 C225.49,249.03 225.25,248.92 225.03,248.79 C225.43,248.49 226.10,247.90 226.79,247.21 C228.48,245.52 228.49,245.32 226.86,243.61 C225.91,242.61 224.66,242.09 224.07,242.46 C224.04,242.47 224.02,242.49 223.99,242.51 C224.17,242.17 224.38,241.82 224.62,241.46 C226.13,239.15 226.77,239.00 235.17,239.00 C237.48,239.00 239.38,239.06 241.02,239.19 C239.56,239.64 239.66,240.78 241.75,241.25 C243.82,241.72 245.00,241.24 245.00,239.94 C245.00,239.88 244.98,239.82 244.96,239.77 C246.32,240.07 247.54,240.49 248.80,241.04 C257.07,244.62 258.53,245.72 258.17,248.07 C257.87,249.98 258.21,250.20 260.86,249.81 C262.53,249.56 263.70,249.68 263.46,250.06 C263.22,250.45 265.51,250.70 268.54,250.63 L 274.05 250.50 L 273.41 247.53 C273.42,247.57 273.43,247.61 273.44,247.65 C274.01,250.33 274.74,250.95 278.42,251.88 L 282.72 252.96 L 282.36 257.65 C282.16,260.23 281.37,263.06 280.60,263.92 C279.83,264.79 278.63,267.43 277.93,269.79 C277.08,272.67 276.39,273.65 275.85,272.79 C275.31,271.94 275.03,272.43 275.02,274.22 C275.00,276.23 275.39,276.79 276.50,276.36 C277.33,276.05 278.00,276.32 278.00,276.97 C278.00,277.62 277.21,278.00 276.25,277.81 C275.03,277.58 274.35,276.24 274.00,273.41 L 273.50 269.34 L 250.50 269.43 C231.21,269.51 226.89,269.80 223.75,271.21 C221.18,272.37 220.00,273.55 220.00,274.95 C220.00,276.08 219.56,277.00 219.03,277.00 C218.50,277.00 218.30,277.63 218.60,278.40 C218.89,279.17 218.69,280.07 218.16,280.40 C217.53,280.79 217.28,277.80 217.47,272.26 C217.66,266.60 217.50,264.74 217.01,267.00 C216.60,268.92 216.20,269.88 216.13,269.13 C216.02,267.98 215.74,267.97 214.39,269.09 C213.44,269.88 213.07,271.47 213.27,273.74 C213.20,273.34 213.14,272.95 213.09,272.56 C212.45,267.84 211.06,265.12 208.74,264.27 C210.47,264.31 211.75,264.60 211.41,265.14 C211.20,265.49 211.80,266.39 212.76,267.14 C214.33,268.37 214.37,268.33 213.13,266.75 C212.05,265.38 212.03,265.00 213.03,265.00 C213.90,265.00 213.75,264.38 212.54,263.05 C211.32,261.70 209.19,261.00 205.64,260.80 C200.79,260.52 200.37,260.69 198.21,263.85 C196.96,265.69 195.54,268.84 195.06,270.85 L 194.20 274.50 L 194.03 271.00 C193.93,268.86 193.60,268.08 193.18,269.00 C192.61,270.26 189.25,270.50 172.00,270.50 C158.48,270.50 150.31,270.91 148.00,271.72 C146.07,272.39 143.06,273.18 141.30,273.47 C138.12,274.01 138.10,273.98 137.68,269.26 C137.45,266.64 137.42,268.44 137.62,273.25 C137.92,280.49 137.72,282.00 136.49,282.00 C134.54,282.00 134.60,282.99 137.10,288.62 C135.87,286.08 135.00,283.70 135.00,282.47 C135.00,281.66 134.55,281.00 134.00,281.00 C133.90,281.00 133.80,281.07 133.71,281.19 C133.96,280.28 134.26,279.46 134.58,278.84 C135.45,277.16 135.71,276.06 135.14,276.41 C134.58,276.76 134.09,276.25 134.06,275.27 C133.83,268.75 132.55,264.71 129.89,262.05 C126.63,258.79 125.92,253.63 128.59,252.60 C129.46,252.27 130.59,252.25 131.09,252.56 C131.59,252.87 132.00,252.61 132.00,251.99 C132.00,251.32 132.81,251.12 134.00,251.50 C135.42,251.95 136.18,251.61 136.60,250.32 C136.70,249.99 136.84,249.58 137.00,249.14 C137.00,249.15 137.00,249.17 137.00,249.19 C137.00,251.05 137.41,251.19 141.10,250.60 C145.56,249.89 150.51,247.63 152.93,245.21 C155.08,243.06 158.63,241.42 163.27,240.38 C163.42,240.53 163.67,240.73 164.00,240.99 C165.21,241.94 164.90,242.07 162.36,241.63 C159.94,241.22 158.81,241.60 157.39,243.30 C156.38,244.51 156.19,244.94 156.98,244.25 C157.76,243.56 160.11,243.00 162.20,243.00 ZM 177.00 173.71 C173.43,171.91 173.22,167.74 176.47,163.04 C181.12,156.33 190.23,153.61 207.33,153.84 C218.71,153.99 220.74,154.29 225.42,156.51 C228.32,157.88 231.15,159.00 231.70,159.00 C232.25,159.00 233.89,160.10 235.34,161.44 L 237.97 163.87 L 233.95 167.94 C230.07,171.86 229.69,172.00 223.21,172.09 C210.98,172.25 200.81,172.93 195.19,173.97 C187.71,175.35 180.04,175.24 177.00,173.71 ZM 138.01 266.86 C138.00,267.86 138.87,268.06 141.25,267.62 C152.60,265.49 161.23,264.86 174.07,265.25 C190.07,265.72 193.17,265.18 192.69,262.02 C192.22,258.95 191.01,258.16 183.43,255.90 C178.31,254.37 173.24,253.78 164.00,253.62 C157.12,253.51 151.05,253.69 150.50,254.04 C149.95,254.38 147.37,255.44 144.78,256.40 C140.74,257.89 139.91,258.68 139.03,261.82 C138.47,263.85 138.01,266.11 138.01,266.86 ZM 218.29 264.17 C217.98,266.24 218.20,266.28 226.23,265.66 C230.78,265.30 243.44,265.01 254.36,265.01 L 274.22 265.00 L 273.55 262.25 C272.09,256.24 263.78,253.50 247.00,253.50 C230.09,253.50 219.31,257.51 218.29,264.17 ZM 256.00 510.47 C256.00,511.36 256.94,511.71 258.75,511.49 C260.26,511.30 264.88,510.89 269.00,510.58 C289.38,509.05 300.80,506.40 295.62,504.41 C293.77,503.70 258.81,507.38 257.04,508.47 C256.47,508.83 256.00,509.73 256.00,510.47 ZM 156.00 302.62 C156.00,301.37 152.63,299.62 150.75,299.89 C150.34,299.95 150.00,299.66 150.00,299.25 C150.00,298.84 148.82,298.43 147.37,298.35 C144.71,298.19 142.71,296.28 143.64,294.77 C143.92,294.32 143.55,294.07 142.82,294.23 C142.10,294.38 141.61,293.94 141.75,293.25 C141.89,292.56 141.52,292.00 140.94,292.00 C140.36,292.00 140.16,291.55 140.50,291.00 C141.45,289.47 143.00,289.81 143.00,291.55 C143.00,292.40 144.36,293.67 146.02,294.36 C147.68,295.06 148.69,296.01 148.27,296.48 C147.84,296.94 148.08,296.98 148.79,296.57 C149.51,296.16 151.15,296.52 152.45,297.37 C153.81,298.27 155.80,298.68 157.16,298.34 C161.35,297.30 166.00,297.18 166.56,298.10 C166.87,298.60 167.57,299.00 168.12,299.00 C168.67,299.00 168.89,298.62 168.60,298.16 C168.32,297.70 169.53,297.42 171.29,297.54 C173.06,297.66 174.97,297.38 175.53,296.93 C176.10,296.48 177.15,296.47 177.86,296.91 C178.74,297.46 177.68,298.40 174.48,299.90 C171.29,301.41 169.44,301.78 168.62,301.10 C167.82,300.44 165.93,300.47 162.96,301.19 C155.60,302.98 156.07,304.00 164.26,304.00 C170.10,304.00 175.16,303.06 179.54,301.12 C178.92,301.41 178.31,301.66 177.71,301.88 C171.09,304.31 163.02,304.67 155.97,303.30 C155.99,303.10 156.00,302.87 156.00,302.62 ZM 181.00 248.70 C181.00,245.91 178.52,245.00 171.05,245.07 C165.90,245.12 164.14,245.41 165.50,246.00 C166.60,246.47 166.94,246.89 166.25,246.93 C165.56,246.97 165.00,247.42 165.00,247.94 C165.00,248.84 168.90,249.44 177.25,249.83 C179.75,249.94 181.00,249.57 181.00,248.70 ZM 241.25 301.34 C239.22,300.52 239.82,298.28 242.25,297.63 C245.86,296.66 253.00,296.91 253.00,298.00 C253.00,298.55 253.71,299.00 254.57,299.00 C255.96,299.00 255.95,299.20 254.47,300.68 C253.15,302.00 252.41,302.11 250.98,301.22 C249.74,300.44 248.13,300.39 245.84,301.05 C244.01,301.57 242.51,301.96 242.51,301.92 C242.50,301.88 241.94,301.62 241.25,301.34 ZM 260.28 298.28 C259.36,297.96 259.45,297.24 260.64,295.43 C261.51,294.10 262.67,293.30 263.22,293.64 C263.77,293.98 264.62,293.64 265.10,292.88 C265.83,291.71 265.97,291.72 265.98,292.90 C266.00,293.97 266.55,293.84 268.25,292.40 C270.50,290.50 270.50,290.50 268.75,292.58 C267.78,293.73 267.33,295.06 267.75,295.55 C268.16,296.04 267.76,295.87 266.86,295.18 C265.47,294.13 265.23,294.21 265.36,295.71 C265.44,296.70 264.83,297.50 264.00,297.50 C263.17,297.50 262.27,297.77 262.00,298.10 C261.73,298.43 260.95,298.51 260.28,298.28 ZM 57.17 604.77 C56.28,603.88 56.02,604.42 56.07,607.05 C56.13,610.29 56.20,610.36 57.24,608.22 C58.05,606.53 58.03,605.63 57.17,604.77 ZM 211.39 589.42 C211.77,588.44 211.54,587.99 210.81,588.23 C209.32,588.73 208.50,591.00 209.81,591.00 C210.35,591.00 211.06,590.29 211.39,589.42 ZM 241.08 302.75 C241.14,301.75 241.26,301.75 241.66,302.75 C242.19,304.05 248.44,304.31 254.15,303.60 C249.89,304.18 245.35,304.11 240.96,303.42 C241.03,303.25 241.06,303.02 241.08,302.75 ZM 138.03 246.46 C138.48,245.35 139.06,243.59 139.33,242.50 C139.64,241.25 141.41,236.21 143.50,230.50 C141.33,236.56 139.50,241.97 139.27,243.26 C139.02,244.64 138.49,245.99 138.03,246.46 ZM 263.68 300.88 C266.67,299.34 269.26,297.18 271.40,294.44 C270.31,295.93 269.16,297.20 268.04,298.13 C266.76,299.20 265.29,300.11 263.68,300.88 ZM 163.87 240.26 C164.57,240.11 165.28,239.98 166.02,239.86 C166.01,239.90 166.00,239.93 166.00,239.97 C166.00,240.50 165.21,240.68 164.25,240.37 C164.11,240.33 163.98,240.29 163.87,240.26 ZM 222.89 295.30 C225.28,297.66 228.34,299.45 232.78,301.31 C228.90,299.87 225.46,297.85 222.89,295.30 ZM 141.10 295.39 C142.53,297.14 144.18,298.57 146.12,299.78 C144.84,299.04 143.69,298.21 142.71,297.29 C142.22,296.82 141.67,296.17 141.10,295.39 ZM 196.25 282.58 C197.48,279.59 198.48,276.40 198.67,274.66 C198.43,276.85 197.53,279.67 196.25,282.58 ZM 184.88 298.02 C186.66,296.71 188.29,295.17 189.79,293.41 C189.09,294.28 188.38,295.07 187.68,295.74 C186.89,296.50 185.93,297.28 184.88,298.02 ZM 222.73 521.85 L 222.08 523.50 C222.07,523.55 222.05,523.60 222.03,523.66 C222.32,522.48 222.56,521.84 222.73,521.85 ZM 132.02 289.62 C131.49,288.87 130.81,286.35 130.15,282.25 C130.79,286.28 131.48,288.82 132.02,289.62 ZM 222.99 523.18 L 222.93 522.38 C222.96,522.58 222.98,522.85 222.99,523.18 ZM 171.00 378.01 C171.07,377.76 171.09,377.57 171.07,377.43 C171.09,377.56 171.07,377.75 171.00,378.01 Z" fill="rgb(39,41,56)"/>
<path d="M 139.36 260.76 C140.16,258.47 141.23,257.71 144.78,256.40 C147.37,255.44 149.95,254.38 150.50,254.04 C151.05,253.69 157.12,253.51 164.00,253.62 C173.24,253.78 178.31,254.37 183.43,255.90 C189.91,257.83 191.74,258.69 192.42,260.82 C191.86,259.74 190.65,259.75 189.37,261.03 C188.08,262.32 184.78,261.17 185.66,259.74 C186.06,259.09 185.82,258.99 185.03,259.48 C184.32,259.92 175.59,260.39 165.62,260.54 C155.65,260.68 146.16,261.04 144.53,261.33 C142.89,261.63 141.05,261.46 140.44,260.95 C139.93,260.53 139.56,260.47 139.36,260.76 ZM 272.21 259.48 C271.22,258.67 269.96,258.93 269.36,260.49 C269.05,261.32 268.38,261.74 267.88,261.43 C267.38,261.12 267.16,260.56 267.39,260.18 C267.97,259.26 224.35,260.31 223.42,261.24 C223.02,261.65 222.12,261.51 221.43,260.94 C220.88,260.48 220.33,260.43 219.85,260.73 C223.53,256.16 233.24,253.50 247.00,253.50 C260.94,253.50 269.03,255.39 272.21,259.48 ZM 218.29 264.17 C218.31,264.05 218.33,263.92 218.36,263.80 C218.34,263.90 218.32,263.99 218.31,264.09 C218.14,265.15 219.60,265.49 230.50,265.43 C228.74,265.50 227.27,265.57 226.23,265.66 C218.20,266.28 217.98,266.24 218.29,264.17 ZM 274.22 265.00 L 257.24 265.01 C266.87,264.80 273.68,264.60 273.80,264.50 C273.90,264.40 273.88,263.84 273.75,263.07 ZM 138.01 266.86 C138.01,266.11 138.47,263.85 139.03,261.82 C139.09,261.60 139.15,261.40 139.21,261.20 C139.21,261.22 139.21,261.24 139.21,261.27 C139.14,261.94 138.77,263.80 138.40,265.38 C138.20,266.24 138.06,266.84 138.06,267.25 C138.02,267.13 138.00,267.01 138.01,266.86 ZM 192.73 262.66 C192.69,264.02 191.66,264.78 188.55,265.14 C191.59,264.78 192.61,264.02 192.73,262.66 ZM 141.25 267.62 C141.06,267.65 140.88,267.68 140.72,267.71 C140.84,267.69 140.97,267.66 141.11,267.64 C142.19,267.44 143.24,267.25 144.27,267.08 C143.28,267.24 142.28,267.42 141.25,267.62 Z" fill="rgb(96,87,86)"/>
<path d="M 139.36 260.76 C139.56,260.47 139.93,260.53 140.44,260.95 C141.05,261.46 142.89,261.63 144.53,261.33 C146.16,261.04 155.65,260.68 165.62,260.54 C175.59,260.39 184.32,259.92 185.03,259.48 C185.82,258.99 186.06,259.09 185.66,259.74 C184.78,261.17 188.08,262.32 189.37,261.03 C190.65,259.75 191.86,259.74 192.42,260.82 C192.53,261.18 192.62,261.58 192.69,262.02 C192.72,262.24 192.74,262.46 192.73,262.66 C192.61,264.02 191.59,264.78 188.55,265.14 L 188.55 265.14 C185.72,265.47 181.16,265.46 174.07,265.25 C162.39,264.90 154.20,265.38 144.27,267.08 C143.24,267.25 142.19,267.44 141.11,267.64 C140.97,267.66 140.84,267.69 140.72,267.71 C139.05,267.98 138.26,267.84 138.06,267.25 C138.06,266.84 138.20,266.24 138.40,265.38 C138.77,263.80 139.14,261.94 139.21,261.27 C139.21,261.24 139.21,261.22 139.21,261.20 C139.26,261.05 139.31,260.90 139.36,260.76 ZM 272.21 259.48 C272.86,260.31 273.30,261.23 273.55,262.25 L 273.75 263.07 C273.88,263.84 273.90,264.40 273.80,264.50 C273.68,264.60 266.87,264.80 257.24,265.01 L 254.36 265.01 C245.93,265.01 236.48,265.18 230.50,265.43 C219.60,265.49 218.14,265.15 218.31,264.09 C218.32,263.99 218.34,263.90 218.36,263.80 C218.59,262.70 219.09,261.68 219.85,260.73 C220.33,260.43 220.88,260.48 221.43,260.94 C222.12,261.51 223.02,261.65 223.42,261.24 C224.35,260.31 267.97,259.26 267.39,260.18 C267.16,260.56 267.38,261.12 267.88,261.43 C268.38,261.74 269.05,261.32 269.36,260.49 C269.96,258.93 271.22,258.67 272.21,259.48 ZM 271.69 250.56 L 268.54 250.63 C265.51,250.70 263.22,250.45 263.46,250.06 C263.70,249.68 262.53,249.56 260.86,249.81 C258.21,250.20 257.87,249.98 258.17,248.07 C258.46,246.17 257.56,245.09 252.86,242.86 C253.07,242.92 253.23,242.96 253.32,242.97 C253.77,242.98 256.02,244.28 258.32,245.85 C260.62,247.41 264.08,249.02 266.00,249.41 C268.67,249.97 270.48,250.37 271.69,250.56 ZM 273.87 249.66 L 274.05 250.50 L 273.69 250.51 C273.72,250.49 273.75,250.46 273.77,250.43 C273.90,250.27 273.92,250.01 273.87,249.66 ZM 268.45 232.70 C271.11,240.01 272.94,245.45 273.41,247.53 L 273.43 247.61 C272.92,245.42 271.11,240.01 268.45,232.70 Z" fill="rgb(65,65,68)"/>
<path d="M 222.73 521.85 C222.56,521.84 222.32,522.48 222.03,523.66 C221.76,524.45 221.43,526.18 221.14,528.19 C220.92,529.52 220.70,531.02 220.47,532.68 C219.00,543.55 218.02,548.25 217.07,549.00 C216.73,549.28 215.57,551.53 214.51,554.00 C209.86,564.80 205.59,568.75 202.04,565.54 C199.10,562.87 194.99,552.60 191.94,540.27 C189.70,531.19 188.61,527.63 188.14,528.19 C188.18,527.98 188.22,527.75 188.26,527.50 C188.61,525.30 189.61,514.95 190.47,504.50 C192.56,478.99 194.80,458.87 196.40,451.10 C197.66,445.02 197.59,444.29 195.11,436.60 C193.68,432.15 192.16,428.35 191.75,428.17 C191.34,427.98 191.00,426.61 191.00,425.11 C191.00,422.32 195.31,417.36 199.68,415.12 C203.46,413.19 210.41,413.75 213.61,416.25 C216.48,418.48 218.59,420.65 219.65,422.36 C218.43,421.59 217.67,422.70 218.41,424.62 C218.91,425.93 219.34,426.06 220.23,425.17 C220.26,425.14 220.29,425.11 220.31,425.09 C219.92,426.10 218.37,430.44 216.80,434.93 L 213.85 443.37 L 215.91 454.43 C218.79,469.91 223.00,508.58 223.00,519.54 C223.00,522.77 223.30,525.47 223.68,525.93 C223.53,526.12 223.40,526.15 223.29,526.04 C223.17,525.17 223.06,524.20 223.01,523.50 L 222.99 523.18 C222.98,522.85 222.96,522.58 222.93,522.38 L 222.87 521.50 ZM 231.61 497.32 C236.67,474.52 242.44,444.54 243.58,432.50 C242.42,444.68 237.02,473.62 231.61,497.32 ZM 184.04 517.03 C182.88,512.35 181.54,506.72 180.16,500.69 C181.39,506.01 182.69,511.48 184.04,517.03 ZM 187.91 529.37 C187.90,529.44 187.90,529.51 187.89,529.58 C187.88,529.87 187.82,529.94 187.72,529.83 C187.78,529.75 187.84,529.59 187.91,529.37 Z" fill="rgb(92,45,37)"/>
<path d="M 171.00 378.01 C171.07,377.76 171.09,377.56 171.07,377.43 L 171.07 377.43 C171.04,377.24 170.94,377.14 170.76,377.12 L 173.00 375.80 L 173.00 379.84 C173.00,382.06 172.48,384.20 171.85,384.60 C171.06,385.08 170.96,384.86 171.54,383.90 C172.26,382.71 172.13,382.71 170.65,383.91 C169.69,384.69 169.15,385.95 169.44,386.71 C169.78,387.59 169.55,387.84 168.82,387.39 C168.03,386.90 167.88,387.24 168.35,388.48 C168.78,389.58 168.42,390.99 167.43,392.08 C166.10,393.55 165.78,396.62 165.65,409.10 C165.54,420.51 165.81,424.44 166.75,424.75 C167.44,424.98 168.00,425.74 168.00,426.45 C168.00,429.11 174.08,441.00 175.45,441.00 C176.23,441.00 178.71,438.38 180.96,435.17 C183.21,431.96 186.39,428.35 188.03,427.14 C189.66,425.93 191.00,424.37 191.00,423.67 C191.00,422.97 192.21,421.41 193.82,419.78 C192.13,421.69 191.00,423.69 191.00,425.11 C191.00,426.61 191.34,427.98 191.75,428.17 C192.16,428.35 193.68,432.15 195.11,436.60 C195.62,438.18 196.03,439.47 196.34,440.57 C196.12,439.83 195.85,439.01 195.52,438.06 C193.85,433.11 192.84,431.49 191.40,431.45 C189.26,431.39 182.83,435.98 178.88,440.38 C175.73,443.90 173.92,443.46 171.63,438.63 C169.35,433.83 168.00,433.22 168.00,436.99 C168.00,438.16 168.44,441.51 169.12,445.95 C168.02,439.15 167.45,434.91 166.51,427.00 C166.28,425.08 165.54,419.58 164.86,414.80 C163.92,408.17 163.90,404.47 164.76,399.30 C166.64,387.98 166.98,386.68 169.38,381.75 C169.94,380.61 170.36,379.70 170.65,379.01 C170.82,378.61 170.94,378.28 171.00,378.01 ZM 245.99 413.67 C245.82,416.02 245.56,418.31 245.20,420.50 C244.57,424.35 243.84,429.75 243.58,432.50 C243.53,432.99 243.48,433.50 243.42,434.04 C243.54,432.16 243.23,432.00 242.60,432.00 C241.49,432.00 240.68,433.25 237.54,439.75 C236.65,441.60 235.21,443.00 234.21,443.00 C233.24,443.00 230.09,440.50 227.22,437.45 C224.35,434.40 222.00,432.21 222.00,432.58 C222.00,432.94 221.42,432.77 220.72,432.18 C219.32,431.02 218.31,431.40 217.15,433.92 C218.60,429.80 219.95,426.02 220.31,425.09 C220.92,424.46 221.05,423.99 220.72,423.43 C222.49,425.66 224.43,428.37 226.62,431.63 C229.17,435.41 232.06,439.35 233.04,440.39 C234.78,442.22 234.91,442.12 237.54,436.89 C239.03,433.92 240.62,431.36 241.07,431.19 C241.52,431.01 241.64,430.22 241.34,429.44 C241.03,428.65 241.36,428.00 242.06,428.00 C242.76,428.00 243.05,427.72 242.71,427.38 C242.37,427.04 242.71,426.14 243.47,425.39 C244.56,424.30 245.51,419.49 245.99,413.67 ZM 184.04 517.03 C182.70,511.52 181.41,506.08 180.19,500.80 C182.67,511.17 184.49,517.83 185.10,518.58 C185.58,519.18 186.64,519.67 187.47,519.67 C188.45,519.67 188.98,519.19 189.49,515.75 C188.95,521.54 188.48,526.12 188.26,527.50 C188.22,527.75 188.18,527.98 188.14,528.19 C188.03,528.33 187.95,528.73 187.91,529.37 C187.84,529.59 187.78,529.75 187.72,529.83 C187.24,529.28 185.86,524.31 184.04,517.03 ZM 224.39 517.23 C225.00,517.64 225.77,517.98 226.11,517.98 C226.32,517.99 226.73,516.92 227.30,515.01 C225.58,521.47 224.37,525.12 223.68,525.93 C223.30,525.47 223.00,522.77 223.00,519.54 C223.00,516.33 222.64,510.76 222.06,504.09 L 222.10 504.50 C222.74,511.10 223.77,516.83 224.39,517.23 ZM 215.28 451.06 L 213.85 443.37 L 215.28 439.27 C214.12,443.16 214.09,444.55 215.28,451.06 ZM 245.32 393.88 C244.41,388.26 242.97,382.84 241.48,379.96 C243.21,383.31 244.52,388.26 245.32,393.88 ZM 141.51 404.30 C142.89,402.34 148.66,396.53 154.61,390.87 C148.59,396.71 142.58,402.78 141.51,404.30 ZM 219.29 477.84 C218.16,468.61 216.95,460.01 215.91,454.43 L 215.48 452.11 C215.60,452.74 215.73,453.41 215.86,454.14 C216.98,459.97 218.07,467.48 219.29,477.84 ZM 220.22 422.82 C220.02,422.62 219.83,422.47 219.65,422.36 C218.68,420.79 216.83,418.85 214.34,416.83 C216.18,418.22 218.11,420.19 220.28,422.89 C220.26,422.86 220.24,422.84 220.22,422.82 ZM 194.88 460.72 C194.08,466.69 193.22,474.45 192.34,483.51 C193.15,474.94 194.04,466.96 194.88,460.72 ZM 210.82 414.81 C209.53,414.38 208.08,414.10 206.61,414.00 C208.07,414.03 209.45,414.28 210.82,414.81 Z" fill="rgb(192,189,190)"/>
<path d="M 232.25 335.35 C229.85,336.02 197.90,336.79 190.50,336.36 C182.52,335.89 178.00,335.08 178.00,334.13 C178.00,332.96 187.05,331.13 190.50,331.59 C192.15,331.81 197.55,332.25 202.50,332.56 C207.45,332.87 212.75,333.52 214.28,334.02 C216.15,334.62 216.86,334.58 216.43,333.89 C216.08,333.33 216.41,332.97 217.15,333.09 C217.89,333.22 219.62,332.85 221.00,332.28 C222.74,331.56 225.09,331.57 228.75,332.32 C234.12,333.42 235.35,334.49 232.25,335.35 ZM 211.50 380.00 C211.16,380.55 209.98,381.00 208.88,381.00 C207.78,381.00 207.16,380.55 207.50,380.00 C207.84,379.45 209.02,379.00 210.12,379.00 C211.22,379.00 211.84,379.45 211.50,380.00 ZM 290.43 247.96 C291.03,244.65 291.66,240.66 292.53,235.09 C294.02,225.56 294.24,217.46 293.08,210.31 C294.35,217.18 294.33,224.64 293.01,232.57 C292.46,235.83 291.51,241.65 290.89,245.50 C290.78,246.17 290.63,247.01 290.43,247.96 ZM 278.61 285.79 L 279.64 289.36 L 280.87 284.43 C281.06,283.64 281.38,282.43 281.79,280.93 C281.40,282.50 281.09,283.82 280.89,284.75 C280.18,288.19 279.22,291.00 278.77,291.00 C278.33,291.00 278.22,289.98 278.53,288.73 C278.73,287.95 278.74,286.84 278.61,285.79 Z" fill="rgb(154,107,78)"/>
<path d="M 263.68 300.88 C265.29,300.11 266.76,299.20 268.04,298.13 C269.16,297.20 270.31,295.93 271.40,294.44 C273.10,292.27 274.52,289.74 275.63,286.87 L 274.40 290.62 L 276.69 289.56 C277.73,289.08 278.38,288.51 278.68,287.74 C278.65,288.10 278.61,288.44 278.53,288.73 C278.22,289.98 278.33,291.00 278.77,291.00 C279.06,291.00 279.56,289.83 280.07,288.08 L 279.69 289.50 L 281.95 287.50 C283.19,286.40 284.86,284.24 285.66,282.70 C288.07,278.03 291.23,275.00 293.68,275.00 C294.96,275.00 296.00,275.29 296.00,275.65 C296.00,276.00 294.01,278.42 291.58,281.02 C285.63,287.38 281.14,296.61 279.51,305.86 C278.33,312.53 278.35,313.80 279.67,315.85 C280.80,317.61 281.87,318.10 283.92,317.80 C287.80,317.23 287.45,319.56 283.28,322.14 C280.92,323.60 278.99,324.05 276.92,323.63 C276.72,323.59 276.54,323.55 276.36,323.52 C275.76,323.38 275.30,323.28 274.87,323.35 C273.43,323.60 272.32,325.78 267.00,335.17 C262.68,342.79 255.93,350.29 246.34,358.13 L 239.00 364.13 L 239.00 369.97 C239.00,374.68 239.02,375.60 241.27,377.12 C240.36,376.93 240.39,377.85 241.48,379.96 C242.06,381.08 242.63,382.59 243.17,384.35 C241.16,378.09 239.00,375.68 239.00,381.04 C239.00,383.84 235.62,392.00 234.45,392.00 C234.18,392.00 234.61,390.72 235.42,389.16 L 236.89 386.31 L 232.79 386.72 C230.53,386.95 225.05,388.32 220.59,389.78 C209.91,393.26 200.18,393.38 190.68,390.13 C184.32,387.95 180.72,387.76 176.95,389.39 C175.83,389.87 174.92,389.05 173.67,386.43 C173.10,385.24 172.67,384.45 172.29,384.00 C172.71,383.13 173.00,381.51 173.00,379.84 L 173.00 375.80 L 173.21 375.67 L 172.72 369.87 C172.29,364.78 171.82,363.73 168.87,361.31 C155.53,350.38 144.39,337.01 140.48,327.25 C138.86,323.20 138.59,323.00 134.60,323.00 C130.96,323.00 129.84,322.41 126.00,318.50 C123.10,315.55 122.13,314.00 123.18,314.00 C124.07,314.00 125.03,314.64 125.33,315.43 C125.73,316.47 126.65,316.65 128.69,316.10 C131.35,315.39 131.51,315.03 131.60,309.50 C131.72,302.87 129.16,291.77 126.45,287.19 C125.46,285.50 122.45,282.93 119.76,281.47 C115.96,279.40 114.95,278.34 115.19,276.67 C115.91,271.69 122.85,275.40 127.16,283.07 C129.18,286.66 130.87,287.91 130.88,286.15 C131.29,287.98 131.68,289.15 132.02,289.62 C132.59,290.48 133.00,289.36 133.00,285.95 C133.00,285.36 133.05,284.70 133.14,284.02 C133.31,284.60 133.64,285.00 134.00,285.00 C134.55,285.00 135.00,284.10 135.00,283.00 C135.00,281.90 134.55,281.00 134.00,281.00 C134.55,281.00 135.00,281.66 135.00,282.47 C135.00,283.70 135.87,286.08 137.10,288.62 C137.19,288.81 137.28,289.01 137.37,289.22 C138.45,291.63 139.67,293.66 141.10,295.39 C141.67,296.17 142.22,296.82 142.71,297.29 C143.69,298.21 144.84,299.04 146.12,299.78 C147.46,300.62 148.94,301.35 150.59,301.99 C153.29,303.04 155.61,303.93 155.75,303.95 C155.84,303.97 155.92,303.70 155.97,303.30 C163.02,304.67 171.09,304.31 177.71,301.88 C178.31,301.66 178.92,301.41 179.54,301.12 C181.45,300.28 183.23,299.25 184.88,298.02 C185.93,297.28 186.89,296.50 187.68,295.74 C188.38,295.07 189.09,294.28 189.79,293.41 C191.77,291.09 193.51,288.38 195.04,285.27 C195.45,284.42 195.86,283.51 196.25,282.58 C197.53,279.67 198.43,276.85 198.67,274.66 C199.47,267.33 199.92,266.27 202.74,265.13 C204.23,264.52 206.78,264.24 208.74,264.27 C211.06,265.12 212.45,267.84 213.09,272.56 C213.14,272.95 213.20,273.34 213.27,273.74 C213.52,276.55 214.65,280.41 216.62,285.09 C217.25,286.58 217.87,287.92 218.50,289.13 C218.38,289.05 218.25,289.00 218.12,289.00 C216.72,289.00 213.55,283.65 214.72,283.26 C215.38,283.04 215.27,281.62 214.41,279.21 C213.68,277.17 213.07,274.91 213.04,274.18 C212.99,272.58 211.23,270.73 208.25,269.13 C205.90,267.88 201.00,268.58 201.00,270.17 C201.00,270.69 200.55,270.84 200.00,270.50 C199.06,269.92 198.60,273.28 198.65,280.21 C198.67,281.70 198.30,282.68 197.84,282.40 C197.38,282.12 197.00,282.72 197.00,283.74 C197.00,284.76 196.61,286.03 196.13,286.55 C194.59,288.24 193.93,294.00 195.27,294.02 C196.12,294.03 196.07,294.30 195.11,294.91 C194.10,295.55 193.87,297.12 194.26,300.61 C195.00,307.20 198.24,310.00 205.12,310.00 C211.26,310.00 213.25,309.00 216.44,304.30 C218.50,301.27 219.04,300.94 219.59,302.37 C219.95,303.32 220.00,305.99 219.69,308.30 C218.38,318.02 204.53,323.14 196.53,316.84 C192.35,313.56 190.73,309.39 191.29,303.44 C191.60,300.19 191.35,297.75 190.64,297.02 C189.78,296.14 189.85,295.94 190.94,296.18 C191.73,296.36 192.56,295.66 192.79,294.64 C193.09,293.23 192.28,293.60 189.47,296.14 C187.42,297.99 185.30,299.37 184.75,299.21 C184.20,299.05 184.02,299.61 184.35,300.46 C184.68,301.33 184.40,302.00 183.70,302.00 C183.03,302.00 180.82,302.88 178.81,303.96 C173.27,306.93 159.40,308.67 153.00,307.19 C144.59,305.25 143.00,305.52 143.00,308.90 C143.00,313.40 149.76,329.81 154.14,335.96 C160.86,345.38 176.28,361.76 184.43,368.14 C186.04,369.40 189.64,371.24 192.43,372.23 C196.23,373.58 199.87,373.96 207.00,373.76 C215.35,373.53 217.19,373.14 222.16,370.50 C231.84,365.37 249.21,349.27 255.59,339.50 C261.29,330.77 261.63,330.17 265.40,322.50 C269.42,314.31 272.03,306.42 271.76,303.27 C271.59,301.19 271.43,301.14 269.29,302.55 C268.03,303.37 267.00,303.78 267.00,303.45 C267.00,303.12 266.34,303.52 265.54,304.32 C263.99,305.86 253.69,308.01 247.92,307.99 C243.32,307.97 234.96,305.67 231.67,303.52 C230.20,302.56 229.00,302.04 229.00,302.38 C229.00,302.71 228.12,302.23 227.05,301.31 C225.98,300.39 225.29,299.34 225.51,298.98 C225.74,298.62 224.36,296.81 222.46,294.96 C220.56,293.12 219.00,291.02 219.00,290.30 C219.00,290.21 218.99,290.11 218.98,290.02 C220.14,292.12 221.39,293.83 222.89,295.30 L 222.89 295.30 C225.46,297.85 228.90,299.87 232.78,301.31 C233.78,301.73 234.85,302.15 236.00,302.59 C239.64,303.97 240.66,304.22 240.96,303.42 C245.35,304.11 249.89,304.18 254.15,303.60 C256.10,303.36 258.00,303.00 259.57,302.53 C261.01,302.10 262.39,301.55 263.68,300.88 ZM 216.46 347.45 C211.51,349.52 203.41,350.16 198.71,348.84 C196.39,348.19 192.22,345.31 187.96,341.39 C184.68,338.38 181.42,335.84 180.03,335.17 C182.09,335.66 185.65,336.07 190.50,336.36 C197.81,336.79 229.02,336.04 232.14,335.38 C231.23,335.72 230.15,335.98 229.25,335.98 C228.01,335.99 227.00,336.56 227.00,337.25 C226.99,339.41 220.37,345.82 216.46,347.45 ZM 250.98 205.29 C248.32,204.29 245.32,203.38 243.29,203.02 C240.42,202.49 237.27,201.62 236.29,201.08 C231.88,198.64 215.30,197.10 197.50,197.47 C183.71,197.76 179.61,198.05 174.38,199.56 C179.51,197.88 182.83,196.90 186.22,196.33 C191.04,195.52 195.99,195.54 206.45,195.58 L 206.50 195.58 C224.24,195.64 226.06,195.83 233.94,198.33 C238.59,199.80 242.64,201.40 242.94,201.87 C243.25,202.34 244.62,203.04 246.00,203.41 C246.93,203.67 248.88,204.41 250.98,205.29 ZM 229.49 332.48 C229.25,332.42 229.01,332.37 228.75,332.32 C225.09,331.57 222.74,331.56 221.00,332.28 C219.62,332.85 217.89,333.22 217.15,333.09 C216.41,332.97 216.08,333.33 216.43,333.89 C216.86,334.58 216.15,334.62 214.28,334.02 C212.75,333.52 207.45,332.87 202.50,332.56 C197.55,332.25 192.15,331.81 190.50,331.59 C188.81,331.36 185.77,331.69 183.11,332.21 C184.19,331.89 185.40,331.55 186.75,331.20 C198.63,328.14 212.26,328.14 224.50,331.19 C226.31,331.65 228.03,332.09 229.49,332.48 ZM 198.50 338.54 C201.73,340.01 205.87,340.37 208.42,339.39 C212.02,338.01 209.55,337.01 202.75,337.08 C195.79,337.16 195.62,337.22 198.50,338.54 ZM 211.50 380.00 C211.84,379.45 211.22,379.00 210.12,379.00 C209.02,379.00 207.84,379.45 207.50,380.00 C207.16,380.55 207.78,381.00 208.88,381.00 C209.98,381.00 211.16,380.55 211.50,380.00 ZM 238.03 435.94 C239.32,433.21 240.71,431.00 241.14,431.00 C241.23,431.00 241.30,430.97 241.36,430.92 C241.29,431.05 241.19,431.14 241.07,431.19 C240.67,431.34 239.36,433.40 238.03,435.94 ZM 178.03 334.27 C178.16,334.52 178.61,334.77 179.38,335.00 C177.90,334.99 177.51,334.71 178.03,334.27 ZM 233.92 334.38 C233.96,334.02 233.44,333.65 232.36,333.26 C233.30,333.53 233.88,333.71 233.97,333.78 C234.19,333.93 234.15,334.15 233.92,334.38 ZM 276.57 284.16 C276.59,284.11 276.60,284.05 276.62,284.00 C277.08,282.46 277.28,281.95 277.65,282.78 C277.35,282.55 277.04,282.95 276.57,284.16 ZM 171.74 383.57 C171.46,383.47 171.18,383.54 170.84,383.75 C172.00,382.82 172.19,382.76 171.74,383.57 ZM 168.10 201.66 C163.57,203.34 159.35,205.26 156.22,207.02 C159.45,205.18 163.77,203.20 168.10,201.66 ZM 127.89 271.59 C127.59,270.52 127.29,269.46 126.99,268.50 C125.45,263.56 123.81,255.95 122.42,247.92 C123.82,255.99 125.47,263.61 127.02,268.50 C127.29,269.36 127.58,270.42 127.89,271.59 ZM 259.07 392.72 C264.92,398.71 268.08,401.82 271.24,404.14 C268.08,401.82 264.91,398.72 259.07,392.73 C257.98,391.63 256.94,390.57 255.94,389.57 C256.99,390.61 258.04,391.66 259.07,392.72 ZM 280.45 286.70 C280.60,286.08 280.75,285.43 280.89,284.75 C281.07,283.93 281.33,282.80 281.66,281.47 C281.24,283.43 280.76,285.51 280.45,286.70 ZM 226.64 431.63 C227.45,432.83 228.28,434.04 229.07,435.16 C228.27,434.03 227.43,432.82 226.62,431.63 C224.43,428.37 222.49,425.66 220.72,423.43 L 220.71 423.42 C222.49,425.66 224.44,428.37 226.64,431.63 ZM 130.10 281.96 C129.95,281.17 129.80,280.32 129.66,279.50 C129.83,280.36 129.98,281.19 130.10,281.96 ZM 210.82 414.81 C209.91,414.46 209.00,414.23 208.06,414.11 C209.01,414.23 209.93,414.46 210.84,414.82 ZM 220.29 422.89 L 220.28 422.89 C220.09,422.65 219.90,422.41 219.71,422.18 C219.90,422.41 220.09,422.65 220.29,422.89 Z" fill="rgb(197,144,109)"/>
<path d="M 218.50 289.13 C218.66,289.44 218.82,289.73 218.98,290.02 C218.99,290.11 219.00,290.21 219.00,290.30 C219.00,291.02 220.56,293.12 222.46,294.96 C224.36,296.81 225.74,298.62 225.51,298.98 C225.29,299.34 225.98,300.39 227.05,301.31 C228.12,302.23 229.00,302.71 229.00,302.38 C229.00,302.04 230.20,302.56 231.67,303.52 C234.96,305.67 243.32,307.97 247.92,307.99 C253.69,308.01 263.99,305.86 265.54,304.32 C266.34,303.52 267.00,303.12 267.00,303.45 C267.00,303.78 268.03,303.37 269.29,302.55 C271.43,301.14 271.59,301.19 271.76,303.27 C272.03,306.42 269.42,314.31 265.40,322.50 C261.63,330.17 261.29,330.77 255.59,339.50 C249.21,349.27 231.84,365.37 222.16,370.50 C217.19,373.14 215.35,373.53 207.00,373.76 C199.87,373.96 196.23,373.58 192.43,372.23 C189.64,371.24 186.04,369.40 184.43,368.14 C176.28,361.76 160.86,345.38 154.14,335.96 C149.76,329.81 143.00,313.40 143.00,308.90 C143.00,305.52 144.59,305.25 153.00,307.19 C159.40,308.67 173.27,306.93 178.81,303.96 C180.82,302.88 183.03,302.00 183.70,302.00 C184.40,302.00 184.68,301.33 184.35,300.46 C184.02,299.61 184.20,299.05 184.75,299.21 C185.30,299.37 187.42,297.99 189.47,296.14 C192.28,293.60 193.09,293.23 192.79,294.64 C192.56,295.66 191.73,296.36 190.94,296.18 C189.85,295.94 189.78,296.14 190.64,297.02 C191.35,297.75 191.60,300.19 191.29,303.44 C190.73,309.39 192.35,313.56 196.53,316.84 C204.53,323.14 218.38,318.02 219.69,308.30 C220.00,305.99 219.95,303.32 219.59,302.37 C219.04,300.94 218.50,301.27 216.44,304.30 C213.25,309.00 211.26,310.00 205.12,310.00 C198.24,310.00 195.00,307.20 194.26,300.61 C193.87,297.12 194.10,295.55 195.11,294.91 C196.07,294.30 196.12,294.03 195.27,294.02 C193.93,294.00 194.59,288.24 196.13,286.55 C196.61,286.03 197.00,284.76 197.00,283.74 C197.00,282.72 197.38,282.12 197.84,282.40 C198.30,282.68 198.67,281.70 198.65,280.21 C198.60,273.28 199.06,269.92 200.00,270.50 C200.55,270.84 201.00,270.69 201.00,270.17 C201.00,268.58 205.90,267.88 208.25,269.13 C211.23,270.73 212.99,272.58 213.04,274.18 C213.07,274.91 213.68,277.17 214.41,279.21 C215.27,281.62 215.38,283.04 214.72,283.26 C213.55,283.65 216.72,289.00 218.12,289.00 C218.25,289.00 218.38,289.05 218.50,289.13 ZM 232.25 335.35 C232.47,335.29 232.67,335.23 232.85,335.17 C232.59,335.29 232.30,335.40 232.00,335.50 C229.36,336.34 229.40,340.14 232.06,342.55 C234.09,344.39 234.16,344.37 236.60,341.26 C238.15,339.28 239.64,338.31 240.58,338.67 C241.40,338.99 241.95,338.82 241.79,338.29 C241.63,337.76 243.41,335.61 245.75,333.50 C248.09,331.40 250.00,329.27 250.00,328.78 C250.00,328.29 251.12,326.24 252.50,324.21 C255.00,320.54 255.94,313.70 254.12,312.57 C253.63,312.27 250.32,311.61 246.76,311.11 C240.17,310.18 233.10,307.24 229.48,303.93 C228.37,302.92 226.49,302.16 225.30,302.25 C223.51,302.39 223.02,303.24 222.48,307.14 C221.93,311.17 221.05,312.61 216.60,316.82 C210.10,322.97 205.37,324.14 198.78,321.23 C191.45,317.98 186.68,310.15 188.29,303.99 C188.58,302.89 188.41,302.25 187.91,302.56 C187.41,302.87 186.99,302.53 186.98,301.81 C186.97,300.91 186.74,300.85 186.23,301.62 C185.83,302.23 184.38,303.07 183.00,303.48 C181.62,303.90 179.82,304.80 179.00,305.48 C178.18,306.17 176.15,307.03 174.50,307.40 C168.76,308.68 160.49,311.33 159.23,312.30 C157.17,313.88 158.21,320.02 161.27,324.42 C162.83,326.66 165.74,330.88 167.73,333.80 C169.72,336.71 173.18,340.19 175.42,341.54 C181.26,345.04 182.39,344.81 181.65,340.25 C181.32,338.19 180.28,335.95 179.35,335.26 C179.22,335.17 179.10,335.08 178.99,334.99 C179.11,334.99 179.24,335.00 179.38,335.00 C179.57,335.06 179.79,335.12 180.03,335.17 C181.42,335.84 184.68,338.38 187.96,341.39 C192.22,345.31 196.39,348.19 198.71,348.84 C203.41,350.16 211.51,349.52 216.46,347.45 C220.37,345.82 226.99,339.41 227.00,337.25 C227.00,336.56 228.01,335.99 229.25,335.98 C230.15,335.98 231.23,335.72 232.14,335.38 C232.18,335.37 232.22,335.36 232.25,335.35 ZM 138.03 246.46 C138.49,245.99 139.02,244.64 139.27,243.26 C139.50,241.97 141.33,236.56 143.50,230.50 C146.55,222.15 150.26,212.39 150.99,211.02 C151.53,210.02 153.49,208.57 156.22,207.02 L 156.22 207.02 C159.35,205.26 163.57,203.34 168.10,201.66 C168.62,201.47 169.15,201.29 169.67,201.12 C171.40,200.54 172.96,200.03 174.38,199.56 C179.61,198.05 183.71,197.76 197.50,197.47 C215.30,197.10 231.88,198.64 236.29,201.08 C237.27,201.62 240.42,202.49 243.29,203.02 C245.32,203.38 248.32,204.29 250.98,205.29 C251.99,205.71 253.03,206.17 254.02,206.62 C259.46,209.11 259.58,209.26 262.68,217.32 C264.86,222.98 266.83,228.25 268.49,232.80 C271.13,240.06 272.93,245.43 273.43,247.61 L 273.87 249.66 C273.92,250.01 273.90,250.27 273.77,250.43 C273.75,250.46 273.72,250.49 273.69,250.51 L 271.69 250.56 C270.48,250.37 268.67,249.97 266.00,249.41 C264.08,249.02 260.62,247.41 258.32,245.85 C256.02,244.28 253.77,242.98 253.32,242.97 C253.23,242.96 253.07,242.92 252.86,242.86 C252.76,242.81 252.67,242.77 252.57,242.72 L 253.83 240.34 C256.01,236.20 256.27,225.28 254.30,220.05 C252.32,214.76 247.05,206.85 245.08,206.19 C244.18,205.89 243.99,206.18 244.52,207.02 C245.04,207.87 244.91,208.06 244.14,207.59 C243.49,207.19 243.21,206.47 243.50,206.00 C244.15,204.94 242.61,203.92 239.69,203.48 C238.49,203.29 235.02,202.47 232.00,201.66 C226.95,200.30 223.45,199.88 205.18,198.45 C201.71,198.18 195.18,198.44 190.68,199.04 C186.18,199.64 179.62,200.52 176.11,200.99 C172.59,201.46 169.44,202.29 169.10,202.84 C168.76,203.39 167.13,204.16 165.49,204.55 C161.38,205.53 158.01,208.83 157.96,211.92 C157.95,213.34 157.29,215.62 156.50,217.00 C154.88,219.84 154.43,234.53 155.94,235.46 C157.17,236.23 156.39,240.14 154.80,241.12 C152.18,242.74 154.52,242.91 158.90,241.66 C156.37,242.60 154.34,243.80 152.93,245.21 C150.51,247.63 145.56,249.89 141.10,250.60 C137.41,251.19 137.00,251.05 137.00,249.19 C137.00,249.17 137.00,249.15 137.00,249.14 C137.32,248.25 137.70,247.24 138.01,246.50 C138.01,246.49 138.02,246.47 138.03,246.46 ZM 130.10 281.96 C130.12,282.06 130.13,282.15 130.15,282.25 C130.39,283.77 130.64,285.07 130.88,286.15 C130.87,287.91 129.18,286.66 127.16,283.07 C122.85,275.40 115.91,271.69 115.19,276.67 C114.95,278.34 115.96,279.40 119.76,281.47 C122.45,282.93 125.46,285.50 126.45,287.19 C129.16,291.77 131.72,302.87 131.60,309.50 C131.51,315.03 131.35,315.39 128.69,316.10 C126.65,316.65 125.73,316.47 125.33,315.43 C125.03,314.64 124.07,314.00 123.18,314.00 C122.52,314.00 122.66,314.62 123.59,315.82 C115.67,306.51 111.04,293.77 111.02,281.00 C110.99,269.97 115.67,264.38 121.19,268.83 C122.11,269.58 123.31,269.92 123.85,269.59 C124.39,269.26 125.04,269.55 125.29,270.24 C126.30,273.01 124.86,260.06 123.43,253.59 C122.87,251.05 122.23,247.25 121.61,243.02 C121.87,244.66 122.14,246.30 122.42,247.92 L 122.43 247.92 C123.81,255.95 125.45,263.56 126.99,268.50 C127.29,269.46 127.59,270.52 127.89,271.59 C128.51,274.01 129.16,276.89 129.66,279.50 C129.80,280.32 129.95,281.17 130.10,281.96 ZM 290.43 247.96 C290.51,247.56 290.59,247.19 290.65,246.84 C290.01,250.52 289.06,255.06 288.40,257.50 C286.20,265.67 287.28,267.99 293.31,268.02 C295.61,268.02 298.03,268.37 298.69,268.79 C302.48,271.20 303.40,287.15 299.97,291.14 L 297.95 293.50 L 296.35 291.25 C293.83,287.69 292.32,288.55 289.05,295.39 C285.86,302.08 284.88,310.01 287.25,309.98 C288.90,309.96 294.41,304.90 294.82,303.03 C295.42,300.30 296.52,299.09 297.73,299.83 C298.61,300.38 298.26,302.00 296.41,305.99 C293.37,312.56 289.04,318.00 284.82,321.07 C287.47,318.96 287.25,317.31 283.92,317.80 C281.87,318.10 280.80,317.61 279.67,315.85 C278.35,313.80 278.33,312.53 279.51,305.86 C281.14,296.61 285.63,287.38 291.58,281.02 C294.01,278.42 296.00,276.00 296.00,275.65 C296.00,275.29 294.96,275.00 293.68,275.00 C291.23,275.00 288.07,278.03 285.66,282.70 C284.86,284.24 283.19,286.40 281.95,287.50 L 279.69 289.50 L 280.07 288.08 C280.20,287.65 280.32,287.19 280.45,286.70 C280.76,285.51 281.24,283.43 281.66,281.47 C281.70,281.30 281.75,281.12 281.79,280.93 C282.79,277.26 284.30,271.89 285.72,267.00 C288.18,258.52 289.22,254.65 290.43,247.96 ZM 234.72 391.89 C233.12,394.02 231.09,396.15 228.68,398.21 C225.28,401.12 223.10,402.73 223.84,401.79 C225.77,399.32 224.48,397.87 221.40,399.04 C220.01,399.57 216.89,400.00 214.47,400.00 C212.05,400.00 207.99,400.71 205.44,401.57 C202.90,402.44 200.07,402.83 199.16,402.46 C196.05,401.18 190.85,401.47 189.70,403.00 C189.07,403.83 188.96,404.17 189.44,403.76 C190.41,402.94 193.00,404.71 193.00,406.19 C193.00,407.70 186.96,403.05 181.23,397.13 C178.33,394.13 175.06,389.67 173.98,387.22 C173.26,385.60 172.76,384.59 172.32,384.04 C172.70,384.49 173.11,385.27 173.67,386.43 C174.92,389.05 175.83,389.87 176.95,389.39 C180.72,387.76 184.32,387.95 190.68,390.13 C200.18,393.38 209.91,393.26 220.59,389.78 C225.05,388.32 230.53,386.95 232.79,386.72 L 236.89 386.31 L 235.42 389.16 C234.61,390.72 234.18,392.00 234.45,392.00 C234.53,392.00 234.62,391.96 234.72,391.89 ZM 199.00 305.00 C200.41,306.41 202.33,307.00 205.50,307.00 C211.34,307.00 214.00,304.52 214.00,299.07 C214.00,296.90 213.52,293.87 212.94,292.34 C212.35,290.80 211.70,286.30 211.49,282.33 C211.02,273.84 209.60,271.00 205.80,271.00 C203.39,271.00 202.90,271.59 201.54,276.18 C200.69,279.03 199.99,283.19 199.99,285.43 C199.98,287.67 199.31,291.98 198.50,295.00 C196.59,302.10 196.62,302.62 199.00,305.00 ZM 201.05 367.03 C205.59,368.17 212.77,367.38 215.77,365.42 C218.41,363.69 222.34,355.94 221.17,354.77 C220.76,354.36 214.82,354.36 207.97,354.77 L 195.50 355.50 L 195.21 359.00 C194.83,363.43 196.66,365.94 201.05,367.03 ZM 200.91 414.61 C201.47,413.76 200.35,411.72 198.37,410.69 C196.17,409.53 196.02,409.21 197.43,408.67 C198.42,408.29 198.85,408.43 198.49,409.01 C198.16,409.56 198.25,410.04 198.69,410.08 C208.28,411.03 210.21,410.96 209.16,409.69 C208.27,408.62 208.73,408.37 211.45,408.42 C214.22,408.46 214.64,408.73 213.71,409.85 C212.95,410.76 212.45,410.85 212.20,410.11 C211.54,408.11 210.41,408.95 210.45,411.41 C210.48,412.84 211.66,414.71 213.43,416.11 C212.71,415.59 211.83,415.16 210.84,414.82 C209.93,414.46 209.01,414.23 208.06,414.11 C207.92,414.09 207.79,414.08 207.65,414.06 L 207.63 414.06 C207.30,414.03 206.96,414.01 206.61,414.00 C204.60,413.87 202.57,414.06 200.91,414.61 ZM 198.50 338.54 C195.62,337.22 195.79,337.16 202.75,337.08 C209.55,337.01 212.02,338.01 208.42,339.39 C205.87,340.37 201.73,340.01 198.50,338.54 ZM 278.61 285.79 C278.69,286.45 278.72,287.13 278.68,287.74 C278.38,288.51 277.73,289.08 276.69,289.56 L 274.40 290.62 L 275.63 286.87 C275.97,286.00 276.29,285.09 276.57,284.16 C277.04,282.95 277.35,282.55 277.65,282.78 C277.86,283.24 278.12,284.10 278.50,285.43 ZM 133.14 284.02 C133.26,283.08 133.46,282.09 133.71,281.19 C133.80,281.07 133.90,281.00 134.00,281.00 C134.55,281.00 135.00,281.90 135.00,283.00 C135.00,284.10 134.55,285.00 134.00,285.00 C133.64,285.00 133.31,284.60 133.14,284.02 ZM 121.45 298.91 C122.48,300.59 123.00,300.21 123.00,297.80 C123.00,296.18 122.70,295.90 121.89,296.71 C121.28,297.32 121.08,298.31 121.45,298.91 ZM 225.00 397.94 C225.00,398.52 225.45,399.00 226.00,399.00 C226.55,399.00 227.00,398.80 227.00,398.56 C227.00,398.32 226.55,397.84 226.00,397.50 C225.45,397.16 225.00,397.36 225.00,397.94 ZM 240.79 378.88 C239.75,377.44 239.00,377.94 239.00,381.18 C239.00,383.94 237.98,386.93 236.05,389.98 C237.42,387.37 239.00,382.96 239.00,381.04 C239.00,377.87 239.76,377.42 240.79,378.88 ZM 201.05 329.03 C196.14,329.30 191.32,330.03 186.75,331.20 C185.40,331.55 184.19,331.89 183.11,332.21 C182.72,332.29 182.34,332.38 181.97,332.46 C183.32,332.07 184.93,331.63 186.62,331.18 C191.04,329.99 195.96,329.27 201.05,329.03 ZM 171.83 239.08 C174.23,238.92 176.58,238.91 178.65,239.06 C177.13,239.03 175.22,239.08 172.74,239.19 C172.71,239.19 172.67,239.20 172.63,239.20 C172.50,239.14 172.24,239.10 171.83,239.08 ZM 163.87 240.26 C163.84,240.25 163.81,240.24 163.79,240.23 C164.53,240.06 165.30,239.90 166.09,239.76 C166.06,239.80 166.04,239.83 166.02,239.86 C165.28,239.98 164.57,240.11 163.87,240.26 ZM 127.79 320.26 C130.29,322.58 131.58,322.99 134.54,323.00 C131.55,323.00 130.34,322.68 127.79,320.26 ZM 197.52 416.45 C198.55,415.63 199.44,415.07 199.92,415.01 C199.84,415.04 199.76,415.08 199.68,415.12 C198.95,415.49 198.23,415.94 197.52,416.45 ZM 184.19 240.22 C184.41,240.32 184.60,240.43 184.76,240.55 C185.84,241.30 186.48,242.35 186.71,243.44 C186.44,242.30 185.70,241.19 184.48,240.40 C184.39,240.33 184.29,240.27 184.19,240.22 ZM 179.11 333.31 C178.57,333.53 178.20,333.75 178.06,333.96 C178.00,333.83 178.01,333.74 178.07,333.69 C178.14,333.63 178.51,333.50 179.11,333.31 ZM 228.38 332.18 C227.19,331.87 225.87,331.54 224.50,331.19 C223.83,331.03 223.15,330.87 222.48,330.72 C223.24,330.88 223.99,331.05 224.74,331.24 C226.03,331.55 227.26,331.87 228.38,332.18 ZM 191.00 423.67 C191.00,424.37 189.66,425.93 188.03,427.14 C189.66,425.93 191.00,424.33 191.00,423.59 C191.00,423.36 191.17,423.01 191.46,422.58 C191.17,423.03 191.00,423.41 191.00,423.67 ZM 162.02 240.68 C162.42,240.57 162.83,240.46 163.24,240.36 C163.25,240.37 163.26,240.38 163.27,240.38 C162.85,240.48 162.43,240.58 162.02,240.68 ZM 244.95 239.76 C245.59,239.90 246.19,240.07 246.75,240.26 C246.17,240.07 245.58,239.91 244.96,239.77 Z" fill="rgb(219,171,137)"/>
<path d="M 224.62 241.46 C224.38,241.82 224.17,242.17 223.99,242.51 C222.37,243.69 222.89,249.00 224.67,249.00 C224.72,249.00 224.85,248.93 225.03,248.79 C225.25,248.92 225.49,249.03 225.75,249.13 L 227.27 249.73 C227.33,249.81 227.40,249.84 227.48,249.81 L 228.50 250.21 L 225.00 251.72 C223.07,252.56 220.72,253.64 219.76,254.12 C216.62,255.71 191.99,254.98 187.08,253.14 C181.93,251.22 180.87,249.38 184.19,248.12 C186.30,247.32 187.15,245.33 186.71,243.44 C186.48,242.35 185.84,241.30 184.76,240.55 C184.60,240.43 184.41,240.32 184.19,240.22 C182.93,239.47 181.45,239.12 178.65,239.06 C176.58,238.91 174.23,238.92 171.83,239.08 C171.34,239.05 170.66,239.04 169.75,239.04 C167.96,239.02 166.45,239.33 166.09,239.76 C165.30,239.90 164.53,240.06 163.79,240.23 C163.07,240.02 162.90,240.03 163.24,240.36 C162.83,240.46 162.42,240.57 162.02,240.68 C160.91,240.97 159.87,241.30 158.90,241.66 C154.52,242.91 152.18,242.74 154.80,241.12 C156.39,240.14 157.17,236.23 155.94,235.46 C154.43,234.53 154.88,219.84 156.50,217.00 C157.29,215.62 157.95,213.34 157.96,211.92 C158.01,208.83 161.38,205.53 165.49,204.55 C167.13,204.16 168.76,203.39 169.10,202.84 C169.44,202.29 172.59,201.46 176.11,200.99 C179.62,200.52 186.18,199.64 190.68,199.04 C195.18,198.44 201.71,198.18 205.18,198.45 C223.45,199.88 226.95,200.30 232.00,201.66 C235.02,202.47 238.49,203.29 239.69,203.48 C242.61,203.92 244.15,204.94 243.50,206.00 C243.21,206.47 243.49,207.19 244.14,207.59 C244.91,208.06 245.04,207.87 244.52,207.02 C243.99,206.18 244.18,205.89 245.08,206.19 C247.05,206.85 252.32,214.76 254.30,220.05 C256.27,225.28 256.01,236.20 253.83,240.34 L 252.57 242.72 C251.51,242.22 250.26,241.67 248.80,241.04 C248.12,240.74 247.45,240.48 246.75,240.26 C246.19,240.07 245.59,239.90 244.95,239.76 C244.73,239.33 243.71,239.00 242.50,239.00 C241.90,239.00 241.41,239.07 241.02,239.19 C239.38,239.06 237.48,239.00 235.17,239.00 C229.94,239.00 227.72,239.06 226.42,239.66 L 226.41 239.67 C225.69,240.00 225.26,240.50 224.75,241.25 C224.74,241.27 224.73,241.29 224.72,241.30 C224.69,241.36 224.65,241.41 224.62,241.46 ZM 229.49 332.48 C229.14,332.38 228.77,332.28 228.38,332.18 C227.26,331.87 226.03,331.55 224.74,331.24 C223.99,331.05 223.24,330.88 222.48,330.72 L 222.48 330.72 C215.53,329.19 208.20,328.63 201.05,329.03 L 201.05 329.03 C195.96,329.27 191.04,329.99 186.62,331.18 C184.93,331.63 183.32,332.07 181.97,332.46 C180.83,332.72 179.83,333.02 179.11,333.31 C178.51,333.50 178.14,333.63 178.07,333.69 C178.01,333.74 178.00,333.83 178.06,333.96 C178.02,334.02 178.00,334.07 178.00,334.13 C178.00,334.17 178.01,334.22 178.03,334.27 C177.56,334.67 177.83,334.93 178.99,334.99 C179.10,335.08 179.22,335.17 179.35,335.26 C180.28,335.95 181.32,338.19 181.65,340.25 C182.39,344.81 181.26,345.04 175.42,341.54 C173.18,340.19 169.72,336.71 167.73,333.80 C165.74,330.88 162.83,326.66 161.27,324.42 C158.21,320.02 157.17,313.88 159.23,312.30 C160.49,311.33 168.76,308.68 174.50,307.40 C176.15,307.03 178.18,306.17 179.00,305.48 C179.82,304.80 181.62,303.90 183.00,303.48 C184.38,303.07 185.83,302.23 186.23,301.62 C186.74,300.85 186.97,300.91 186.98,301.81 C186.99,302.53 187.41,302.87 187.91,302.56 C188.41,302.25 188.58,302.89 188.29,303.99 C186.68,310.15 191.45,317.98 198.78,321.23 C205.37,324.14 210.10,322.97 216.60,316.82 C221.05,312.61 221.93,311.17 222.48,307.14 C223.02,303.24 223.51,302.39 225.30,302.25 C226.49,302.16 228.37,302.92 229.48,303.93 C233.10,307.24 240.17,310.18 246.76,311.11 C250.32,311.61 253.63,312.27 254.12,312.57 C255.94,313.70 255.00,320.54 252.50,324.21 C251.12,326.24 250.00,328.29 250.00,328.78 C250.00,329.27 248.09,331.40 245.75,333.50 C243.41,335.61 241.63,337.76 241.79,338.29 C241.95,338.82 241.40,338.99 240.58,338.67 C239.64,338.31 238.15,339.28 236.60,341.26 C234.16,344.37 234.09,344.39 232.06,342.55 C229.40,340.14 229.36,336.34 232.00,335.50 C232.30,335.40 232.59,335.29 232.85,335.17 C233.54,334.92 233.90,334.66 233.92,334.38 C234.15,334.15 234.19,333.93 233.97,333.78 C233.88,333.71 233.30,333.53 232.36,333.26 C231.65,333.00 230.69,332.74 229.49,332.48 ZM 199.00 305.00 C196.62,302.62 196.59,302.10 198.50,295.00 C199.31,291.98 199.98,287.67 199.99,285.43 C199.99,283.19 200.69,279.03 201.54,276.18 C202.90,271.59 203.39,271.00 205.80,271.00 C209.60,271.00 211.02,273.84 211.49,282.33 C211.70,286.30 212.35,290.80 212.94,292.34 C213.52,293.87 214.00,296.90 214.00,299.07 C214.00,304.52 211.34,307.00 205.50,307.00 C202.33,307.00 200.41,306.41 199.00,305.00 ZM 201.05 367.03 C196.66,365.94 194.83,363.43 195.21,359.00 L 195.50 355.50 L 207.97 354.77 C214.82,354.36 220.76,354.36 221.17,354.77 C222.34,355.94 218.41,363.69 215.77,365.42 C212.77,367.38 205.59,368.17 201.05,367.03 ZM 191.14 405.77 C192.29,406.50 193.00,406.71 193.00,406.19 C193.00,404.71 190.41,402.94 189.44,403.76 C188.96,404.17 189.07,403.83 189.70,403.00 C190.85,401.47 196.05,401.18 199.16,402.46 C200.07,402.83 202.90,402.44 205.44,401.57 C207.99,400.71 212.05,400.00 214.47,400.00 C216.89,400.00 220.01,399.57 221.40,399.04 C224.48,397.87 225.77,399.32 223.84,401.79 C223.10,402.73 225.28,401.12 228.68,398.21 C230.67,396.51 232.39,394.77 233.83,393.02 C229.99,397.95 224.12,403.17 216.69,408.16 C214.07,409.92 211.69,411.54 210.60,412.30 C210.51,411.99 210.46,411.69 210.45,411.41 C210.41,408.95 211.54,408.11 212.20,410.11 C212.45,410.85 212.95,410.76 213.71,409.85 C214.64,408.73 214.22,408.46 211.45,408.42 C208.73,408.37 208.27,408.62 209.16,409.69 C210.21,410.96 208.28,411.03 198.69,410.08 C198.25,410.04 198.16,409.56 198.49,409.01 C198.85,408.43 198.42,408.29 197.43,408.67 C196.02,409.21 196.17,409.53 198.37,410.69 C200.29,411.69 201.40,413.64 200.95,414.53 C200.95,413.59 198.16,411.13 191.74,406.24 ZM 295.12 308.58 C295.57,307.74 296.00,306.88 296.41,305.99 C298.26,302.00 298.61,300.38 297.73,299.83 C296.52,299.09 295.42,300.30 294.82,303.03 C294.41,304.90 288.90,309.96 287.25,309.98 C284.88,310.01 285.86,302.08 289.05,295.39 C292.32,288.55 293.83,287.69 296.35,291.25 L 297.95 293.50 L 299.97 291.14 C300.64,290.37 301.14,289.15 301.49,287.66 C300.67,295.29 298.43,302.51 295.12,308.58 ZM 124.96 262.80 C125.61,267.77 125.91,271.93 125.29,270.24 C125.04,269.55 124.39,269.26 123.85,269.59 C123.31,269.92 122.11,269.58 121.19,268.83 C117.12,265.55 113.51,267.72 111.90,273.50 C113.54,267.16 117.30,263.52 122.11,264.23 C123.85,264.49 124.77,264.29 124.96,262.80 ZM 301.21 273.61 C300.63,271.29 299.78,269.48 298.69,268.79 C298.03,268.37 295.61,268.02 293.31,268.02 C289.12,268.00 287.32,266.88 287.35,263.45 C287.75,263.99 288.80,264.00 290.78,264.00 C296.44,264.00 299.88,267.13 301.21,273.61 ZM 121.45 298.91 C121.08,298.31 121.28,297.32 121.89,296.71 C122.70,295.90 123.00,296.18 123.00,297.80 C123.00,300.21 122.48,300.59 121.45,298.91 ZM 225.00 397.94 C225.00,397.36 225.45,397.16 226.00,397.50 C226.55,397.84 227.00,398.32 227.00,398.56 C227.00,398.80 226.55,399.00 226.00,399.00 C225.45,399.00 225.00,398.52 225.00,397.94 ZM 170.85 434.00 C169.31,430.90 168.00,427.68 168.00,426.45 C168.00,427.12 169.27,430.48 170.85,434.00 ZM 287.92 259.43 C288.05,258.83 288.22,258.18 288.40,257.50 C289.06,255.06 290.01,250.52 290.65,246.84 C290.75,246.35 290.83,245.90 290.89,245.50 C291.20,243.57 291.60,241.15 291.98,238.80 C290.77,246.85 289.24,255.03 288.05,258.99 C288.00,259.14 287.96,259.29 287.92,259.43 ZM 175.10 389.28 C176.61,391.73 179.02,394.85 181.23,397.13 C181.85,397.77 182.48,398.40 183.10,399.01 C179.52,395.62 176.95,392.48 175.10,389.28 ZM 294.00 219.31 C293.92,216.21 293.61,213.21 293.08,210.31 C292.97,209.61 292.84,208.93 292.70,208.25 C293.52,211.82 293.96,215.52 294.00,219.31 ZM 278.36 323.78 C279.66,323.78 280.96,323.41 282.40,322.64 C280.88,323.56 279.75,323.86 278.36,323.78 ZM 111.02 280.81 C111.02,280.87 111.02,280.94 111.02,281.00 C111.03,287.19 112.12,293.37 114.15,299.16 C112.13,293.42 111.03,287.31 111.01,281.27 C111.01,281.12 111.01,280.96 111.02,280.81 ZM 274.86 323.41 C274.03,323.58 273.31,324.33 271.97,326.51 C273.36,324.23 274.07,323.49 274.87,323.35 C275.19,323.30 275.52,323.34 275.92,323.42 C275.52,323.36 275.18,323.34 274.86,323.41 ZM 212.81 415.58 C213.34,415.98 213.87,416.41 214.41,416.88 C214.39,416.86 214.36,416.84 214.34,416.83 C214.10,416.63 213.86,416.44 213.61,416.25 C213.55,416.20 213.49,416.16 213.43,416.11 C213.21,415.94 213.00,415.76 212.81,415.58 ZM 226.64 431.63 C226.01,430.70 225.40,429.81 224.81,428.97 C225.39,429.78 225.97,430.62 226.56,431.50 C227.51,432.91 228.49,434.33 229.39,435.61 C229.28,435.46 229.18,435.31 229.07,435.16 C228.28,434.04 227.45,432.83 226.64,431.63 Z" fill="rgb(231,188,158)"/>
<path d="M 194.88 460.72 C194.04,466.96 193.15,474.94 192.34,483.50 L 192.34 483.51 C191.71,489.92 191.08,496.97 190.47,504.50 C190.14,508.40 189.81,512.29 189.49,515.75 C188.98,519.19 188.45,519.67 187.47,519.67 C186.64,519.67 185.58,519.18 185.10,518.58 C184.49,517.83 182.67,511.17 180.19,500.80 C180.18,500.76 180.17,500.73 180.16,500.69 C176.51,484.79 172.55,466.13 170.64,455.00 C170.03,451.40 169.54,448.50 169.12,445.95 L 169.12 445.95 C168.44,441.51 168.00,438.16 168.00,436.99 C168.00,433.22 169.35,433.83 171.63,438.63 C173.92,443.46 175.73,443.90 178.88,440.38 C182.83,435.98 189.26,431.39 191.40,431.45 C192.84,431.49 193.85,433.11 195.52,438.06 C195.85,439.01 196.12,439.83 196.34,440.57 C197.56,444.82 197.40,446.28 196.40,451.10 C195.94,453.34 195.42,456.60 194.88,460.72 ZM 231.61 497.32 C230.66,501.50 229.70,505.52 228.77,509.25 C228.25,511.37 227.75,513.29 227.30,515.01 C226.73,516.92 226.32,517.99 226.11,517.98 C225.77,517.98 225.00,517.64 224.39,517.23 C223.77,516.83 222.74,511.10 222.10,504.50 L 222.06 504.09 C221.37,496.17 220.37,486.72 219.29,477.84 C218.07,467.48 216.98,459.97 215.86,454.14 C215.73,453.41 215.60,452.74 215.48,452.11 L 215.28 451.06 L 215.28 451.06 C214.09,444.55 214.12,443.16 215.28,439.27 L 216.80 434.93 C216.92,434.60 217.04,434.26 217.15,433.92 C218.31,431.40 219.32,431.02 220.72,432.18 C221.42,432.77 222.00,432.94 222.00,432.58 C222.00,432.21 224.35,434.40 227.22,437.45 C230.09,440.50 233.24,443.00 234.21,443.00 C235.21,443.00 236.65,441.60 237.54,439.75 C240.68,433.25 241.49,432.00 242.60,432.00 C243.23,432.00 243.54,432.16 243.42,434.04 C241.97,446.95 236.47,475.44 231.61,497.32 ZM 245.99 413.67 C245.51,419.49 244.56,424.30 243.47,425.39 C242.71,426.14 242.37,427.04 242.71,427.38 C243.05,427.72 242.76,428.00 242.06,428.00 C241.36,428.00 241.03,428.65 241.34,429.44 C241.56,430.01 241.55,430.59 241.36,430.92 C241.30,430.97 241.23,431.00 241.14,431.00 C240.71,431.00 239.32,433.21 238.03,435.94 C237.87,436.25 237.70,436.57 237.54,436.89 C234.91,442.12 234.78,442.22 233.04,440.39 C232.41,439.72 231.00,437.86 229.39,435.61 C228.49,434.33 227.51,432.91 226.56,431.50 C225.97,430.63 225.39,429.78 224.81,428.97 L 224.81 428.97 C223.34,426.86 221.98,425.02 220.71,423.42 C220.61,423.25 220.47,423.08 220.29,422.89 C220.09,422.65 219.90,422.41 219.71,422.18 C217.79,419.88 216.07,418.15 214.41,416.88 C213.87,416.41 213.34,415.98 212.81,415.58 C211.71,414.55 210.91,413.37 210.60,412.30 C211.69,411.54 214.07,409.92 216.69,408.16 C224.12,403.17 229.99,397.95 233.83,393.02 C234.14,392.64 234.44,392.27 234.72,391.89 C235.08,391.63 235.55,390.92 236.05,389.98 C237.98,386.93 239.00,383.94 239.00,381.18 C239.00,377.94 239.75,377.44 240.79,378.88 C241.50,379.88 242.35,381.80 243.17,384.35 C244.16,387.27 244.83,390.45 245.32,393.88 C246.20,400.07 246.46,407.07 245.99,413.67 ZM 171.74 383.57 C171.68,383.67 171.61,383.78 171.54,383.90 C170.96,384.86 171.06,385.08 171.85,384.60 C172.00,384.50 172.16,384.29 172.29,384.00 C172.30,384.01 172.31,384.02 172.32,384.04 C172.76,384.59 173.26,385.60 173.98,387.22 C174.24,387.81 174.63,388.51 175.10,389.28 C176.95,392.48 179.52,395.62 183.10,399.01 C186.25,402.08 189.28,404.60 191.14,405.77 C198.16,411.13 200.95,413.59 200.95,414.53 C200.94,414.56 200.93,414.59 200.91,414.61 C200.56,414.73 200.23,414.86 199.92,415.01 C199.44,415.07 198.55,415.63 197.52,416.45 C196.16,417.42 194.88,418.58 193.82,419.78 C192.80,420.81 191.95,421.80 191.46,422.58 C191.17,423.01 191.00,423.36 191.00,423.59 C191.00,424.33 189.66,425.93 188.03,427.14 C186.39,428.35 183.21,431.96 180.96,435.17 C178.71,438.38 176.23,441.00 175.45,441.00 C174.71,441.00 172.63,437.58 170.85,434.00 C169.27,430.48 168.00,427.12 168.00,426.45 C168.00,425.74 167.44,424.98 166.75,424.75 C165.81,424.44 165.54,420.51 165.65,409.10 C165.78,396.62 166.10,393.55 167.43,392.08 C168.42,390.99 168.78,389.58 168.35,388.48 C167.88,387.24 168.03,386.90 168.82,387.39 C169.55,387.84 169.78,387.59 169.44,386.71 C169.15,385.95 169.69,384.69 170.65,383.91 C170.71,383.85 170.78,383.80 170.84,383.75 C171.18,383.54 171.46,383.47 171.74,383.57 ZM 256.00 510.47 C256.00,509.73 256.47,508.83 257.04,508.47 C258.81,507.38 293.77,503.70 295.62,504.41 C300.80,506.40 289.38,509.05 269.00,510.58 C264.88,510.89 260.26,511.30 258.75,511.49 C256.94,511.71 256.00,511.36 256.00,510.47 Z" fill="rgb(235,227,224)"/>
<path d="M 0.00 306.00 L 0.00 0.00 L 204.00 0.00 L 408.00 0.00 L 408.00 306.00 L 408.00 612.00 L 382.63 612.00 L 357.26 612.00 L 356.59 601.75 C355.26,581.45 348.95,521.96 346.44,506.00 C341.41,474.08 338.75,459.74 335.33,446.00 C333.46,438.48 331.95,435.15 329.35,432.85 C327.12,430.87 316.90,425.48 308.00,421.59 C304.42,420.02 299.12,417.68 296.22,416.37 C293.32,415.07 290.73,414.00 290.48,414.00 C290.22,414.00 285.65,411.88 280.32,409.29 C271.45,404.97 269.65,403.57 259.07,392.72 C252.70,386.20 245.59,379.72 243.25,378.34 C239.02,375.82 239.00,375.78 239.00,369.97 L 239.00 364.13 L 246.34 358.13 C255.93,350.29 262.68,342.79 267.00,335.17 C274.37,322.16 273.57,323.06 277.25,323.65 C279.97,324.10 281.39,323.58 284.96,320.85 C294.35,313.65 300.74,300.01 301.71,285.10 C302.63,270.79 299.12,264.00 290.78,264.00 C286.59,264.00 286.56,263.94 288.05,258.99 C290.37,251.26 294.00,227.41 294.00,219.89 C294.00,206.76 289.23,194.59 280.45,185.33 C277.41,182.12 273.98,177.70 272.83,175.50 C269.17,168.48 255.48,155.96 246.22,151.16 C223.87,139.57 192.05,138.18 175.68,148.09 C173.03,149.69 170.11,151.00 169.18,151.01 C161.14,151.06 137.05,169.92 137.01,176.20 C137.00,177.14 134.97,179.90 132.50,182.34 C125.06,189.68 119.03,205.64 119.04,218.00 C119.04,224.60 121.69,245.85 123.46,253.50 C125.77,263.44 125.60,264.74 122.11,264.23 C115.57,263.27 110.99,270.31 111.01,281.27 C111.05,294.63 116.39,308.30 125.24,317.66 C129.80,322.48 130.70,323.00 134.54,323.00 C138.60,323.00 138.86,323.18 140.48,327.25 C144.39,337.01 155.53,350.38 168.87,361.31 C171.82,363.73 172.29,364.78 172.72,369.87 L 173.21 375.67 L 169.15 378.09 C165.37,380.33 144.37,400.25 141.51,404.30 C140.81,405.29 131.75,409.92 121.37,414.59 C88.93,429.17 83.90,432.19 80.98,438.77 C76.67,448.51 64.98,511.46 62.50,538.33 C62.25,540.98 61.38,548.18 60.57,554.33 C59.76,560.47 58.84,569.10 58.53,573.50 C57.81,583.77 56.14,602.28 55.43,607.75 L 54.88 612.00 L 27.44 612.00 L 0.00 612.00 L 0.00 306.00 ZM 106.00 608.36 C106.00,601.30 108.37,582.11 109.18,582.61 C109.63,582.89 110.00,589.62 110.00,597.56 C110.00,611.33 109.91,612.00 108.00,612.00 C106.37,612.00 106.00,611.33 106.00,608.36 ZM 301.00 603.66 C301.00,591.06 302.22,571.00 302.98,571.00 C303.75,571.00 306.03,597.51 306.01,606.25 C306.00,611.71 305.88,612.00 303.50,612.00 C301.03,612.00 301.00,611.89 301.00,603.66 Z" fill="rgb(254,254,254)"/>
</g>
</svg>